<?xml version="1.0" encoding="iso-8859-1"?>
<!DOCTYPE svg PUBLIC "-//W3C//DTD SVG 1.0//EN" "http://www.w3.org/TR/2001/REC-SVG-20010904/DTD/svg10.dtd">
<!-- Creator: CorelDRAW -->
<svg xmlns="http://www.w3.org/2000/svg" xmlns:odm="http://product.corel.com/CGS/11/cddns/" xmlns:corel-charset="http://product.corel.com/CGS/11/cddns/" xml:space="preserve" width="205.2mm" height="290.211mm" style="shape-rendering:geometricPrecision; text-rendering:geometricPrecision; image-rendering:optimizeQuality; fill-rule:evenodd"
     viewBox="0 0 205200 290211">
 <defs>
  <style type="text/css">
   <![CDATA[
    .fil1 {fill:#003399}
    .fil3 {fill:#0033CC}
    .fil0 {fill:#F1B11B}
    .fil2 {fill:#F3F5F6}
   ]]>
  </style>
 </defs>
 <g id="Ebene_x0020_1">
 </g>
 <g id="Umriss">
  <path class="fil0" d="M104003 235814c2135.35,-2355.11 3215.19,-3209.62 7377.62,-6125.02 20129.4,-10926.9 74304,-29073.1 75472.3,-72528.3 3713.63,-36008.5 -21979.9,-74343.8 837.998,-112725 -26375.8,-6716 -49509.8,-14022.1 -49509.8,-14022.1l-19086.9 7300.14 -15858 -9145.76 0.293143 68.0091 -15460.2 8480.82 -19771.8 -6224.5c-426.23,107.486 -24320.4,6142.12 -50496.2,12807 22705.8,42096.8 -2347.1,72747 1079.74,112438 -347.57,46122.1 58402.9,63892.8 71976.3,70707.8 7541.49,3484.1 11251.7,6313.81 13438.5,8968.12z"/>
  <path class="fil1" d="M26552.7 49262l139071 142830c-20185.5,21368.7 -53839.7,28851.2 -61496.2,37482.3 -7378.21,-9257.55 -63514.8,-20394.3 -77783.8,-58886 -12111.3,-46774.7 20672.6,-66716.7 208.718,-121426z"/>
  <path class="fil1" d="M27925.6 46039c46663,48020 93325.9,96040 139989,144060 14767.9,-15556.6 18421.6,-33930.9 10961.1,-68272 -3966.91,-25784.7 -11506.7,-43754 2192.22,-74535.5l-42591.7 -11587.4 -19730 6576.66 -15345.5 -8768.88 -15136.9 8664.33 -20251.9 -6785.28 -40086.2 10647.9z"/>
  <path class="fil2" d="M103755 48836.6c2714.21,-1440.11 3967.4,-2567.25 8768.88,-250.539 1169.84,-646.966 4009.41,-2546.24 9771.04,250.539 6410.25,-1209.9 17829.8,-5446.11 25805.6,7015.1 11668.6,-811.322 20832.7,8187.09 12777.5,26056.1 4320.63,2548.1 6136.65,8331.32 2004.32,17036.7 1252.4,2046.23 2087.37,2631.45 1252.7,8017.26 1754.07,2588.84 3090.51,5177.78 -1002.16,7766.72 5387.48,5678.86 6807.46,12193 -751.618,17036.7 -1000.59,7475.53 -14112.4,19753.8 -34323.9,501.079 -6848.4,1044.96 -15158.4,-4174.55 -15533.4,-17537.8 -11275.5,-2713.33 -13363.2,-13361.6 -10021.6,-25053.9 -9270.25,1065.57 -23239.3,-7786.56 -16222.5,-17683.9 -7956.19,-12067.9 -670.809,-31027.9 17475.2,-23154z"/>
  <path class="fil1" d="M106768 60374.1c1555.51,231.681 2792.77,1972.56 4389.33,3462.41l552.086 -32.3434c2163,1841.82 4065.7,2700.82 6902.54,5560.43l7681.03 -2393.22 -1341.13 -1901.52 152.239 -82.08 2261.11 2491.13c299.201,191.422 739.404,610.519 1038.8,802.039 309.07,591.465 -3235.61,4036.38 -4901.06,6102.35l2341.92 1506.17c1115.8,89.3109 3242.06,216.828 3611.42,322.653 298.029,175.788 845.229,841.809 1006.55,1171.59 44.7531,511.73 -2426.34,1104.07 -3719.49,1624.21 106.215,101.427 -26.3829,776.145 79.8326,877.572l-1745.86 1547.7c-97.812,-109.733 -529.709,-28.1417 -627.423,-137.777 -564.886,1274.19 -1197.1,3819.75 -1706.97,3757.21 -323.923,-172.661 -970.401,-694.944 -1135.64,-998.933 -96.1509,-475.087 -198.849,-2648.94 -249.171,-3767.18l-1513.99 -2493.47c-2122.84,1592.35 -5453.63,4676.7 -6034.05,4347.21 -180.869,-305.846 -493.946,-613.939 -674.815,-919.687l-2410.71 -2346.61 87.3566 -149.307 1853.54 1406.69 2574.28 -7452.67c-2758.87,-2934.95 -3465.44,-5006.59 -5230.65,-7232.62l51.5931 -550.62c-1433.18,-1647.56 -3115.52,-2958.69 -3292.68,-4521.34z"/>
  <path class="fil1" d="M129371 63123.2c1555.51,231.681 2792.77,1972.56 4389.33,3462.41l552.086 -32.3434c2163,1841.82 4065.7,2700.82 6902.54,5560.43l7681.03 -2393.22 -1341.13 -1901.52 152.239 -82.08 2261.11 2491.13c299.201,191.422 739.404,610.519 1038.8,802.039 309.07,591.465 -3235.61,4036.38 -4901.06,6102.35l2341.92 1506.17c1115.8,89.3109 3242.06,216.828 3611.42,322.653 298.029,175.788 845.229,841.809 1006.55,1171.59 44.7531,511.73 -2426.34,1104.07 -3719.49,1624.21 106.215,101.427 -26.3829,776.145 79.8326,877.572l-1745.86 1547.7c-97.812,-109.733 -529.709,-28.1417 -627.423,-137.777 -564.886,1274.19 -1197.1,3819.75 -1706.97,3757.21 -323.923,-172.661 -970.401,-694.944 -1135.64,-998.933 -96.1509,-475.087 -198.849,-2648.94 -249.171,-3767.18l-1513.99 -2493.47c-2122.84,1592.35 -5453.63,4676.7 -6034.05,4347.21 -180.869,-305.846 -493.946,-613.939 -674.815,-919.687l-2410.71 -2346.61 87.3566 -149.307 1853.54 1406.69 2574.28 -7452.67c-2758.87,-2934.95 -3465.44,-5006.59 -5230.65,-7232.62l51.5931 -550.62c-1433.18,-1647.56 -3115.52,-2958.69 -3292.68,-4521.34z"/>
  <path class="fil1" d="M130135 84199.6c1555.51,231.681 2792.77,1972.56 4389.33,3462.41l552.086 -32.3434c2163,1841.82 4065.7,2700.82 6902.54,5560.43l7681.03 -2393.22 -1341.13 -1901.52 152.239 -82.08 2261.11 2491.13c299.201,191.422 739.404,610.519 1038.8,802.039 309.07,591.465 -3235.61,4036.38 -4901.06,6102.35l2341.92 1506.17c1115.8,89.3109 3242.06,216.828 3611.42,322.653 298.029,175.788 845.229,841.809 1006.55,1171.59 44.7531,511.73 -2426.34,1104.07 -3719.49,1624.21 106.215,101.427 -26.3829,776.145 79.8326,877.572l-1745.86 1547.7c-97.812,-109.733 -529.709,-28.1417 -627.423,-137.777 -564.886,1274.19 -1197.1,3819.75 -1706.97,3757.21 -323.923,-172.661 -970.401,-694.944 -1135.64,-998.933 -96.1509,-475.087 -198.849,-2648.94 -249.171,-3767.18l-1513.99 -2493.47c-2122.84,1592.35 -5453.63,4676.7 -6034.05,4347.21 -180.869,-305.846 -493.946,-613.939 -674.815,-919.687l-2410.71 -2346.61 87.3566 -149.307 1853.54 1406.69 2574.28 -7452.67c-2758.87,-2934.95 -3465.44,-5006.59 -5230.65,-7232.62l51.5931 -550.62c-1433.18,-1647.56 -3115.52,-2958.69 -3292.68,-4521.34z"/>
  <path class="fil1" d="M109059 82977.8c1555.51,231.681 2792.77,1972.56 4389.33,3462.41l552.086 -32.3434c2163,1841.82 4065.7,2700.82 6902.54,5560.43l7681.03 -2393.22 -1341.13 -1901.52 152.239 -82.08 2261.11 2491.13c299.201,191.422 739.404,610.519 1038.8,802.039 309.07,591.465 -3235.61,4036.38 -4901.06,6102.35l2341.92 1506.17c1115.8,89.3109 3242.06,216.828 3611.42,322.653 298.029,175.788 845.229,841.809 1006.55,1171.59 44.7531,511.73 -2426.34,1104.07 -3719.49,1624.21 106.215,101.427 -26.3829,776.145 79.8326,877.572l-1745.86 1547.7c-97.812,-109.733 -529.709,-28.1417 -627.423,-137.777 -564.886,1274.19 -1197.1,3819.75 -1706.97,3757.21 -323.923,-172.661 -970.401,-694.944 -1135.64,-998.933 -96.1509,-475.087 -198.849,-2648.94 -249.171,-3767.18l-1513.99 -2493.47c-2122.84,1592.35 -5453.63,4676.7 -6034.05,4347.21 -180.869,-305.846 -493.946,-613.939 -674.815,-919.687l-2410.71 -2346.61 87.3566 -149.307 1853.54 1406.69 2574.28 -7452.67c-2758.87,-2934.95 -3465.44,-5006.59 -5230.65,-7232.62l51.5931 -550.62c-1433.18,-1647.56 -3115.52,-2958.69 -3292.68,-4521.34z"/>
  <path class="fil0" d="M30770.2 56145.1l132348 136052c-18767.8,19868 -50119.7,27222.7 -58909,34830.1 -8948.19,-8189.73 -62707,-20590.7 -75973.8,-56378.9 -11887,-44742.2 17176.5,-60503.3 2534.9,-114503z"/>
  <path class="fil0" d="M6168.21 205205c8148.69,711.165 22402.4,4396.56 29142.3,14343.5 -38.0109,1897.22 -75.924,3794.54 -113.837,5691.86 21353.5,13479.5 88729.3,24454.4 135442,-887.637 -52.1794,-2400.25 -104.359,-4800.51 -156.538,-7200.76 9340.12,-9861.91 19619.5,-11583.8 28490,-13149.2 -2713.33,4330.89 -5426.66,8661.79 -8139.99,12992.7 3235.12,2087.18 6470.25,4174.35 9705.37,6261.53 -8453.07,2922.05 -12836.1,3339.48 -20663.1,11114.2 0,2713.33 0,5426.66 0,8139.99 -45187.4,25777 -121623,23282 -154347,1252.31 52.1794,-2608.97 104.359,-5217.94 156.538,-7826.91 -9914.09,-7461.66 -13410.1,-8505.25 -21289.2,-11114.2 3339.48,-2348.07 6678.97,-4696.15 10018.5,-7044.22 -2748.41,-4191.06 -5496.82,-8382.13 -8245.23,-12573.1z"/>
  <path class="fil1" d="M26598.5 221313l-465.413 22108c4837.35,3044.09 10427.3,5687.66 16581.4,7919.06 6302.08,2284.95 13202,4142.01 20497.2,5559.26 37401.2,7265.74 85068.9,2952.34 115862,-14505.3 -40.6491,-3877.79 -81.4937,-7870.89 -122.143,-11862.6 -36.3497,-3569.31 -73.0903,-7137.93 -109.44,-10622.3 -4360.5,3388.05 -9555.68,6368.82 -15376.4,8928.25 -6306.97,2773.23 -13354.4,5056.91 -20873.4,6833.36 -38120,9006.42 -88469.1,4969.85 -115994,-14357.6zm-1331.55 -2579.07c2.14971,-6.54686 4.59257,-12.7029 6.84,-19.2497l1.17257 -56.8697 15.048 11.0417c632.993,-1695.05 3461.24,-927.797 6274.63,-256.891 5347.02,1273.9 1113.65,-1304.68 -1047.2,-3041.16 -1342.11,-1078.57 -2925.08,-2083.07 -4340.76,-2953.32 -6574.71,-4041.27 -13372.7,-5804.03 -18418.8,-6441.91 2685.97,3784.28 5573.33,7579.79 7547.26,11806.1 273.209,584.918 297.638,506.355 -239.595,864.478 -3.71314,2.44286 -3.51771,1.66114 -0.781714,-1.07486 0,-0.0977143 -0.0977143,-0.195429 -0.195429,-0.390857 -2814.95,2106.82 -5723.22,3828.45 -8557.52,6042.46 4002.87,1093.52 6472.69,2177.56 9405.88,3710.02 3060.12,1598.8 5846.34,3510.29 9032.71,5903.21l301.449 -14318.6 26.2851 -1243.41 -6.35143 -4.49486zm-367.015 17733.6c-3252.13,-2481.45 -6574.41,-5254.98 -9622.61,-6847.72 -3152.07,-1646.78 -6600.89,-2948.63 -11123.7,-4098.14 -1454.87,-370.044 -1417.54,-207.252 -280.147,-1187.62 1816.7,-1565.87 3950.78,-2963.58 6038.84,-4331.28 1255.34,-822.168 2494.45,-1633.88 3599.99,-2436.11 -525.312,-1076.13 -7471.43,-11252.5 -8028.89,-11900.5 -383.822,-625.274 -1278.3,-1429.17 887.148,-1231.69 5244.33,464.338 13131.6,1930.35 20614.8,6529.95 1451.06,891.936 2993.18,1895.07 4393.92,3020.74 1821.1,1467.67 3147.77,2341.23 4513.42,4055.24 834.285,1389.11 113.935,5124.63 124.586,6948.66 28246.3,14589.2 72152.6,17399.4 106263,9340.41 7436.74,-1757 14402.5,-4013.71 20631.1,-6752.45 2385.01,-1048.67 4660.97,-2167.69 6813.03,-3355.61 -46.3166,-2125.77 -349.035,-5227.23 5.86286,-7250.79 2881.99,-4042.44 8567.88,-7411.73 13880.2,-9678.5 4644.26,-1981.55 9493.63,-3067.45 14936.4,-4085.24 3082.89,-575.146 2490.25,-516.811 721.131,1768.53 -2670.53,3870.95 -5371.84,7626.99 -7777.47,11680.5 3142.1,2153.43 6513.44,3956.84 9623.1,6158.54 1421.16,1006.46 1450.76,832.623 -242.331,1233.45 -8664.42,2050.34 -13784.6,5092.38 -20257.6,10637.1 26.676,2601.15 -183.312,5516.26 -156.734,8048.33 0.0977143,18.5657 0.488571,37.3269 0.586286,55.7949l4.20171 401.801 -351.674 201.389c-31061.5,17784.5 -79336,22206.3 -117156,14859 -7361.31,-1430.05 -14331.8,-3306.85 -20707.3,-5618.47 -6392.96,-2317.88 -12182.2,-5069.42 -17163,-8242.4l0.781714 -1.17257 -17.1977 -10.944 -328.613 -209.011 8.11029 -386.167 153.998 -7315.58zm9464.31 -12358.1c20.7154,-1354.61 16.0251,-1857.74 128.103,-3207.76 -965.319,-114.814 -2048.68,-279.365 -3208.45,-555.897 -2193.59,-523.065 -2505.88,-694.944 -3691.74,-700.807 2391.36,1731.79 4038.73,2972.96 6772.09,4464.47zm142661 -5132.74l-5916.5 507.821 134.748 3712.65c3890.3,-2358.04 4056.02,-2343.38 5781.75,-4220.48zm3568.92 13852.5c14.6571,-12.7029 29.5097,-25.2103 44.1669,-37.9131 4559.25,-3949.12 8344.21,-7101.58 18415.7,-9712.21 -2927.52,-1934.74 -6014.31,-3629.99 -8879.59,-5658.44 -0.586286,-0.390857 -1.07486,-0.781714 -1.56343,-1.17257 -585.211,-390.075 -550.131,-302.817 -195.819,-909.622 1257.39,-2154.11 2662.13,-4333.04 4066.58,-6511.58 1104.66,-1713.52 2209.12,-3427.62 3254.47,-5153.55 -4754.09,924.67 -9050.2,1964.15 -13149.5,3713.24 -2191.93,935.321 -11090.7,5921.49 -13039.9,9167.07 1946.86,-132.696 3974.43,-446.652 5921.19,-579.25 1057.37,-72.0154 3396.16,-784.548 3413.55,867.117 669.05,5853.77 99.6686,9765.66 150.675,14816.3zm-165530 -14184c0.390857,-0.390857 0.879429,-0.977143 1.46571,-1.56343 -0.586286,0.390857 -1.07486,0.781714 -1.66114,1.17257 0.0977143,0.195429 0.195429,0.293143 0.195429,0.390857z"/>
  <path class="fil1" d="M163394 246977c-46.6097,-1076.62 -453.101,-3180.01 619.899,-3896.45 623.906,-415.286 1224.65,1184.49 1859.7,1239.8 484.956,43.8737 1020.33,44.0691 1549.75,0 1572.42,-130.253 2870.94,-2084.15 2656.75,-3586.6 -273.893,-1964.35 -2731.7,-2908.86 -3896.55,-4073.71 -755.136,-755.136 -2117.37,-1326.37 -2207.66,-2732.38 -175.397,-2733.07 1834.98,-5666.45 4864.41,-5857.68 662.601,-44.0691 1329.7,44.1669 2036.76,0 89.1154,-5.17886 709.015,-753.084 797.055,-796.958 222.3,-111.101 900.437,-30.5846 929.849,309.95 152.337,1752.8 92.4377,2514.48 -619.899,3940.82 -19.7383,39.5743 -98.0074,39.5743 -177.156,0 -21.5949,-10.8463 -704.911,-962.974 -752.693,-1107.01 -22.6697,-68.3023 -910.893,-604.265 -974.114,-619.899 -2265.02,-565.375 -3201.02,3138.19 -1062.74,4206.5 1354.03,673.935 4169.08,2843.88 4383.66,4560.72 87.8451,702.859 44.0691,1418.32 0,2169.65 -183.898,3331.57 -5222.14,5304.71 -8014.53,5490.57 -105.825,6.64457 -1992.49,2292.18 -1992.49,752.693z"/>
  <path class="fil1" d="M151792 251980c-677.16,-126.247 -832.623,-759.924 -325.877,-1202.57 366.624,-320.21 933.367,-638.465 945.777,-1144.23 103.186,-4175.62 258.357,-7934.79 177.058,-12176.7 -2.052,-134.553 -756.895,-547.689 -974.114,-619.899 -474.012,-157.906 -221.225,-840.441 -132.794,-1107.01 236.859,-710.676 3716.27,-1770.78 4516.35,-2036.76 740.772,-246.533 1243.71,246.435 1107.01,929.849 -88.92,452.026 -615.502,826.761 -752.693,1239.8 -431.799,1295.79 -1108.08,11119.5 -177.156,12220.9 28.6303,33.8091 279.756,654.393 797.055,309.95 722.597,-480.754 2727.99,-1142.67 3276.56,-1416.95 278.486,-138.363 380.109,-1132.7 619.899,-1372.59 251.81,-251.712 1208.43,-745.755 1239.9,-177.156 44.0691,751.325 44.0691,1551.21 0,2346.8 -22.6697,415.383 -710.969,915.876 -752.791,929.849 -2810.46,934.246 -5578.61,2007.15 -8457.27,2966.7 -199.044,66.0549 -771.161,372.291 -1106.91,309.95z"/>
  <path class="fil1" d="M53537.9 252777c-694.553,-96.7371 -9691.89,-2996.6 -9874.22,-3453.71 -82.08,-205.493 -43.5806,-490.721 0,-752.693 25.7966,-157.809 1414.32,-941.77 1416.95,-1284.16 43.8737,-4028.96 44.0691,-8103.35 0,-12176.7 -0.488571,-84.132 -1088.63,-962.095 -1239.8,-1416.86 -126.051,-378.643 487.399,-863.306 619.899,-797.055 1486.43,739.99 3173.37,1339.86 4870.67,1903.96 291.677,97.128 730.219,730.61 619.899,1062.74 -174.713,524.042 -771.259,567.231 -974.114,974.114 -57.9446,115.791 -132.501,575.83 -132.891,619.899 -44.0691,3940.43 -43.8737,7882.03 0,11866.7 4.88571,627.717 2624.12,1604.66 3586.6,1284.06 552.281,-183.507 597.23,-154.389 929.849,-487.008 299.69,-299.69 261.972,-529.318 664.164,-797.055 110.515,-73.5789 271.059,-42.8966 442.841,0 42.8966,10.6509 477.823,399.065 487.008,487.106 88.0406,836.532 44.1669,1683.81 0,2523.86 -12.2143,239.693 -1016.81,499.809 -1416.86,442.743z"/>
  <path class="fil1" d="M139129 253087c483.099,-240.573 453.785,-12504 132.794,-12663.7 -394.961,-197.578 -196.113,-63.3189 -442.743,-309.95 -85.2069,-85.3046 -459.159,-226.111 -487.106,-309.95 -83.8389,-251.907 -43.5806,-534.986 0,-797.055 99.7663,-608.76 9469.1,-3174.25 10626.9,-2789.55 176.961,58.9217 650.777,532.347 664.262,619.899 149.503,972.746 -137.777,1738.04 -177.156,2656.75 -13.0937,306.139 -654.979,364.865 -929.849,309.95 -307.214,-60.3874 -615.698,-1196.9 -1107.01,-1239.8 -484.956,-43.9714 -1020.33,-44.1669 -1549.75,0 -565.473,46.9029 -1710.68,501.177 -2213.91,752.693 -39.5743,19.7383 -292.752,223.179 -309.95,309.95 -119.993,599.868 -183.801,2413.93 0,2966.7 158.59,476.064 698.462,568.599 1106.91,487.106 690.742,-135.823 1022.68,-451.049 1239.9,-1107.01 256.402,-770.575 1221.62,-40.4537 1239.8,0 86.0863,191.715 44.0691,2082.1 0,3143.76 -21.6926,550.913 -648.921,702.566 -1062.74,619.899 -137.484,-26.9691 -723.574,-776.047 -796.958,-796.958 -696.507,-198.751 -1840.25,269.789 -1859.8,1106.91 -44.0691,1814.75 -44.0691,3631.55 0,5490.57 11.9211,502.642 867.801,694.162 1239.8,619.899 758.751,-149.21 1764.04,-396.915 2656.75,-619.899 730.121,-179.501 823.731,-1195.63 929.849,-1726.81 32.2457,-164.551 1290.71,-1014.76 1416.95,0 87.8451,702.859 44.0691,1418.32 0,2169.65 -50.9091,930.045 -9154.36,2805.96 -9874.22,3010.97 -1525.81,435.61 -1761.3,-1245.37 -442.743,-1904.06z"/>
  <path class="fil1" d="M56814.4 250298c-165.43,-6971.13 -280.245,-11231.8 -309.95,-11291.1 -50.7137,-101.623 -173.541,-241.745 -309.95,-309.95 -568.404,-284.153 -546.614,-1276.44 0,-1549.75 246.142,-122.925 3547.91,1037.92 5058.08,1416.95 750.153,188.198 769.011,357.341 626.544,929.849 -47.7823,192.106 -1081.01,569.87 -1300.97,972.55 -21.9857,2124.7 -22.1811,8422.58 0,10274.3 23.6469,1987.8 4232.4,3321.02 4383.56,1106.91 124.879,-1829.5 155.17,-8516.68 132.891,-10317 -12.8006,-1049.74 -953.105,-693.381 -752.791,-1903.96 97.812,-590.781 3459.67,-16.7091 3586.6,619.899 25.992,130.253 25.992,534.009 0,664.164 -106.313,533.129 -1089.22,169.437 -1107.01,929.849 -45.144,1915.69 -110.515,8957.96 -132.794,10804.1 -26.3829,2190.75 -919.101,2393.8 -2656.75,2479.6 -4131.85,204.711 -7170.67,-2847.3 -7217.47,-4826.4z"/>
  <path class="fil1" d="M128015 255744c-2028.74,-1453.5 -3558.95,-2626.17 -3586.51,-6110.47 -44.1669,-4259.66 1587.08,-9159.25 7350.26,-9697.07 210.183,-19.5429 669.05,-55.5994 929.849,0 293.925,62.7326 1000.79,136.214 1239.8,0 932.487,-530.784 1026.59,-523.162 1416.95,-132.794 283.371,283.469 102.991,410.205 177.058,929.849 964.245,6914.26 -1283.57,341.707 -3940.82,929.849 -2098.32,465.218 -2835.38,3497.29 -3276.56,5490.57 -158.688,716.441 -354.117,1824.33 -310.047,2656.75 74.4583,1450.57 1107.01,4030.52 2346.8,4383.56 1737.16,495.998 2226.52,-1791.69 2346.8,-2656.75 87.6497,-628.596 58.4331,-1272.24 0,-1903.96 -101.427,-1097.04 -1878.17,-932.976 -2213.91,-1859.7 -94.4897,-260.995 244.579,-882.946 354.214,-929.849 631.43,-270.082 5098.54,-907.375 5136.35,-177.156 43.5806,840.147 43.8737,1683.81 0,2523.96 -6.44914,127.908 -29.1189,692.892 0,929.849 130.546,1045.05 -73.9697,2461.62 -132.891,3586.51 -168.557,3290.24 -6636.17,2897.33 -7837.37,2036.85z"/>
  <path class="fil1" d="M69478.2 255611c-211.258,-317.474 178.719,-853.73 487.106,-929.849 879.917,-219.662 491.014,-48.3686 929.849,-487.106 601.529,-601.627 564.398,-10878.4 177.058,-12043.9 -82.2754,-247.022 -818.943,-331.838 -1106.91,-619.899 -605.829,-605.731 -359.1,-1284.06 309.95,-1284.06 1536.85,194.256 10891.7,996.49 10936.9,2036.85 36.936,816.403 440.007,3795.81 -929.849,3453.71 -42.8966,-10.6509 -432.19,-444.111 -442.841,-487.008 -153.411,-614.525 -334.378,-1762.28 -797.055,-1992.59 -840.245,-420.074 -3874.18,-746.635 -3896.45,-235.296 -43.9714,973.039 -43.9714,2317.49 0,3334.79 7.13314,167.58 508.994,432.19 619.899,487.106 947.926,471.862 1377.67,-803.114 2479.6,-619.899 1060.79,172.173 211.063,4178.26 177.058,4206.5 -898.971,745.56 -1145.31,-1061.86 -2213.91,-1416.95 -370.923,-123.413 -1052.19,-45.828 -1062.64,487.106 -44.1669,2188.8 -44.1669,3477.75 0,5313.41 2.54057,115.401 590.097,433.07 752.693,487.106 412.452,137.386 2587.67,378.936 2966.7,0 395.841,-395.938 894.477,-1243.32 1416.95,-1416.95 157.906,-52.4726 778.685,124.781 796.958,309.95 88.0406,881.09 44.1669,1772.34 0,2656.75 -19.3474,408.055 -10598,266.662 -11601,-1239.8z"/>
  <path class="fil1" d="M109373 258091c-917.439,-1912.56 109.147,-1171.79 664.164,-1726.9 1413.44,-1413.44 399.065,-12797.1 -820.898,-12577.6 -1200.52,215.949 -693.283,-1338.88 -209.109,-1358.03 570.163,-22.4743 2565.29,-295.977 3199.75,-145.008 3117.57,741.749 4585.73,8845.78 7217.37,8324.38 287.671,-56.772 332.619,-5374.09 309.95,-6597.47 -17.1977,-938.741 -1368.78,-516.42 -1284.06,-1859.8 31.7571,-501.861 4025.34,-1115.12 4560.72,-309.95 417.729,628.694 -1230.03,958.186 -1239.8,1859.8 -21.5949,1970.02 -22.1811,9741.63 0,11733.8 13.9731,1266.87 1463.08,-8.892 929.849,1594.01 -27.8486,83.9366 -485.542,309.657 -487.106,309.95 -237.543,52.668 -997.663,-24.0377 -1239.8,0 -242.136,24.1354 -1426.63,140.22 -1549.75,0 -1873.48,-2130.37 -5013.23,-5465.75 -6287.52,-8014.43 -29.7051,-59.3126 -137.386,-327.05 -196.699,-356.657 -264.61,-132.305 -733.15,-594.787 -733.15,533.813 0,2184.31 -154.682,4374.28 0,6553.21 13.5823,191.911 324.705,206.763 487.008,309.95 331.251,210.77 1016.81,819.53 619.899,1416.95 -197.187,296.661 -3807.05,589.022 -3940.82,309.95z"/>
  <path class="fil1" d="M91573.3 258268c-305.846,-12.0189 -1259.05,-478.995 -1107.01,-1239.8 8.50114,-43.3851 70.2566,-114.521 132.794,-177.058 28.1417,-28.044 227.87,-144.324 310.047,-177.156 240.377,-96.0531 516.127,-59.2149 664.164,-132.794 1401.22,-700.611 4839.1,-11637.3 4693.51,-12220.9 -50.9091,-205.395 -1611.6,-1651.47 0,-1726.9 1813.19,-88.4314 3631.55,-44.0691 5446.3,0 46.4143,1.07486 463.166,237.934 487.106,309.95 308.484,927.211 -413.527,1028.83 -797.055,1284.06 -84.0343,55.9903 -161.033,892.522 -132.794,1062.74 592.637,3615.53 3006.57,8303.96 3896.45,10981.1 37.5223,112.567 747.417,559.219 929.849,619.899 54.2314,17.9794 278.779,278.681 309.95,309.95 215.362,215.265 258.357,294.609 177.156,619.899 -1.368,6.05829 -398.674,482.904 -487.106,487.008 -1813.09,88.4314 -3631.55,44.1669 -5446.2,0 -338.971,-8.01257 -466.683,-768.425 -354.312,-1106.91 23.7446,-71.3314 1083.16,-474.207 1107.01,-619.899 93.8057,-564.691 -413.82,-1818.07 -752.693,-1859.7 -1693.29,-211.649 -3206.2,-71.5269 -5357.77,0 -296.758,9.18514 -1003.43,1386.86 -929.849,1682.54 16.9046,68.4977 1940.9,1762.28 309.95,1903.96 -1014.57,88.236 -2037.93,44.1669 -3099.5,0z"/>
  <path class="fil1" d="M36623.3 246667c-1189.96,-65.664 -6642.03,-2966.8 -7040.31,-3763.66 -79.1486,-158.297 -43.3851,-402.876 0,-619.899 16.0251,-81.396 1106.22,-834.48 1107.01,-929.849 44.0691,-4471.8 44.0691,-8944.67 0,-13460.7 -2.14971,-270.375 -632.7,-588.435 -797.055,-752.791 -299.69,-299.69 -130.058,-1440.41 177.156,-1594.01 158.199,-79.1486 402.778,-43.3851 619.899,0 2404.26,472.937 8088.69,4147.87 9564.18,5623.36 517.397,517.397 1020.33,1442.95 1239.8,2214.01 85.1091,297.931 43.776,623.026 0,929.849 -135.432,972.062 -956.721,1832.63 -1416.95,2523.86 -250.637,376.689 108.658,374.246 177.156,442.743 554.138,554.235 1924.19,2833.52 2036.85,3630.87 87.4543,613.646 44.0691,1241.56 0,1859.8 -76.0217,1069.48 -1877.87,3804.99 -3453.81,3896.45 -707.061,44.1669 -1462.59,44.1669 -2213.91,0z"/>
  <path class="fil0" d="M96109.8 252001c-130.351,-260.897 1628.21,-4716.57 1859.7,-4870.67 110.515,-73.5789 315.422,-42.8966 487.106,0 51.5931,12.8006 1843.67,4225.36 1682.54,4870.67 -260.018,1049.16 -3680.51,700.807 -4029.35,0zm-61193.3 -8590.06c-96.0531,-1542.91 -263.047,-3009.7 -177.156,-4560.72 23.94,-456.717 619.02,-1224.95 974.211,-1106.91 789.629,263.145 1907.97,1428.58 2169.65,2213.91 237.543,714.682 231.29,1650.69 0,2346.71 -331.74,996.002 -2894.2,2332.73 -2966.7,1107.01zm487.106 -8634.33c-17.9794,-3.51771 -485.542,-398.674 -487.106,-442.841 -44.0691,-1194.65 -232.56,-2413.15 0,-3630.87 61.3646,-321.578 690.547,-354.214 929.849,-309.95 650.191,120.189 1447.73,1655.77 1726.9,2214.01 161.717,323.532 -338.189,1400.83 -487.106,1549.75 -284.446,284.446 -1050.33,746.244 -1682.54,619.899z"/>
  <path class="fil1" d="M75329.6 133554c16588.4,0 30118,13529.6 30118,30118.4 0,11876.2 -6935.76,22183.2 -16962.8,27081.3l0 -4428.22 -4160.19 -1828.53c706.083,-306.725 1393.21,-649.311 2060.11,-1023.65 -387.046,-301.742 -834.089,-609.639 -1350.12,-924.67 3984.98,-1964.55 2053.17,1571.34 4111.04,-7403.71 -2466.5,75.924 -3921.37,-185.364 -6387.78,-109.538 -2599.79,40.6491 -1490.14,3501.59 -2162.91,3301.28 -2043.5,-55.6971 -1822.76,1141.11 -3721.64,2867.72 -2428.59,0 -4664.39,433.558 -7092.88,433.558 -894.867,-3653.54 -489.06,-2056.3 -227.674,-3301.28 151.75,-379.425 207.154,-807.022 359.002,-1186.54 -379.522,-417.338 -951.639,465.902 -1042.03,-1204.04 -4898.61,-1616.1 -4401.64,910.697 -6602.55,1366.05 921.641,1612.87 -220.639,2653.24 -1044.08,4108.59 1549.55,1234.62 3262.58,2272.15 5101.57,3071.94l-4150.61 1832.83 0 4428.22c-10027.2,-4898.22 -16962.8,-15205.2 -16962.8,-27081.3 0,-16588.8 13529.6,-30118.4 30118.4,-30118.4z"/>
  <path class="fil0" d="M102477 167136l-487.985 2113.36 1860.19 1118.54 -2161.93 188.686 -487.985 2113.36 -849.821 -1994.84 -2162.03 188.589 1639.25 -1424.38 -848.649 -2000.31 1860.58 1117.36 1638.38 -1420.37z"/>
  <path class="fil0" d="M97305.2 155717l5989.89 -726.408 419.976 1464.64 -5533.46 2318.17 -339.753 -1184.88 1493.27 -550.131 -162.597 -567.231 -1567.83 290.211 -299.494 -1044.37z"/>
  <path class="fil0" d="M95188.9 151454l5260.64 -2797.07 800.085 1504.8 -2564.61 1802.44c-197.578,142.565 -477.921,325.975 -836.239,550.913 -30.3891,19.2497 -52.1794,33.9069 -67.9114,45.3394l22.3766 33.4183c173.247,-76.4126 344.15,-148.623 513.977,-217.121 170.316,-67.1297 359.882,-136.702 568.404,-208.425l2892.93 -1011.93 764.517 1437.87 -5260.64 2797.07 -508.114 -955.646 2781.83 -1479.2c144.91,-76.9989 312.295,-164.453 504.206,-261.874 190.641,-96.6394 405.71,-203.148 645.794,-321.48l-13.0937 -30.4869c-315.813,149.21 -633.97,276.141 -951.542,377.861 -13.4846,4.104 -20.3246,6.05829 -22.7674,7.32857l-3274.6 1086.88 -473.817 -891.154 2593.53 -2006.76c86.3794,-66.348 216.242,-157.222 391.541,-273.893 174.127,-115.987 380.499,-247.608 619.802,-396.72l-16.3183 -36.5451c-8.50114,4.49486 -49.8343,26.4806 -120.579,64.1006 -1097.92,589.999 -2364,1266.38 -3798.15,2028.94l-451.245 -848.649z"/>
  <path class="fil0" d="M92282.3 147629l4630.29 -3749.49 1072.61 1324.52 -2173.65 2258.67c-166.701,177.645 -406.98,411.182 -715.757,700.318 -26.0897,24.7217 -44.7531,43.2874 -58.0423,57.5537l28.3371 28.4349c155.561,-108.072 309.559,-211.454 463.166,-311.122 154.389,-98.3983 327.147,-202.855 518.179,-313.077l2646.69 -1545.25 1024.83 1265.5 -4630.29 3749.49 -681.166 -841.222 2448.52 -1982.72c127.517,-103.284 275.163,-221.127 444.991,-353.335 168.655,-131.23 359.393,-276.825 572.606,-438.737l-18.7611 -27.4577c-281.515,206.666 -569.577,392.03 -861.938,552.477 -12.4097,6.54686 -18.7611,9.77143 -20.9109,11.5303l-3007.06 1691.73 -635.143 -784.353 2162.91 -2464.84c72.2109,-81.5914 182.335,-195.429 332.131,-343.466 148.819,-147.158 326.268,-315.617 532.738,-507.723l-22.9629 -32.832c-7.524,6.156 -43.9714,35.568 -106.118,85.9886 -965.222,788.652 -2078.97,1694.17 -3341.34,2716.36l-604.851 -746.928z"/>
  <path class="fil0" d="M92849.1 142112c356.266,-424.569 692.99,-658.692 1009.39,-701.002 317.376,-41.5286 665.239,97.4211 1044.47,415.579 379.229,318.158 577.198,635.631 593.321,953.203 14.9503,316.79 -157.906,690.156 -517.69,1119.02l-2020.83 2408.27c-358.123,426.816 -694.944,660.744 -1009.19,702.957 -314.445,42.1149 -663.382,-97.6166 -1044.66,-417.533 -381.281,-319.917 -579.543,-639.345 -592.539,-956.33 -13.1914,-316.887 158.883,-689.081 516.909,-1115.9l2020.83 -2408.27z"/>
  <path class="fil0" d="M90066.1 140044c319.428,-456.326 634.557,-718.786 944.018,-788.163 309.559,-69.4749 667.095,37.8154 1070.36,320.112 405.514,283.958 630.355,582.963 674.131,897.897 42.5057,314.347 -97.128,701.295 -418.217,1159.87l-378.057 539.871 -969.13 -678.626 607.392 -867.41c60.0943,-85.7931 90.3857,-155.463 89.0177,-208.718 -0.488571,-52.3749 -31.7571,-101.33 -93.9034,-144.813 -59.8989,-41.9194 -114.326,-53.0589 -163.769,-35.4703 -48.1731,18.468 -103.284,70.7451 -163.378,156.538l-2231.89 3187.44c-60.0943,85.7931 -90.3857,155.463 -90.4834,211.063 -0.488571,53.4497 28.6303,100.743 86.2817,141.099 62.1463,43.4829 119.602,55.1109 170.511,35.3726 52.0817,-19.152 107.193,-71.4291 165.723,-155.073l688.104 -982.615 969.13 678.626 -493.457 704.715c-317.962,454.078 -632.309,715.464 -941.086,783.766 -308.679,68.3023 -667.682,-41.6263 -1075.44,-327.147 -405.417,-283.958 -630.159,-580.911 -673.056,-892.229 -41.8217,-310.438 98.1051,-695.433 419.194,-1154.1l1808.01 -2582z"/>
  <path class="fil0" d="M85071 137598c226.599,-508.896 485.738,-826.663 776.34,-953.789 290.602,-127.224 664.555,-89.1154 1119.22,113.349 425.741,189.566 698.853,430.431 821.191,721.815 122.241,291.482 95.2714,637.097 -81.9823,1035.09l-363.399 816.305 -1080.82 -481.243 430.627 -967.371c42.6034,-95.6623 59.1171,-169.827 47.5869,-221.811 -10.3577,-51.3977 -50.5183,-93.4149 -119.798,-124.293 -64.296,-28.6303 -120.384,-27.9463 -166.505,1.27029 -47.5869,28.6303 -91.1674,89.3109 -131.523,179.99l-1582.09 3553.48c-42.6034,95.76 -59.1171,169.925 -48.564,224.45 9.67371,52.5703 47.2937,93.5126 111.59,122.045 69.2794,30.8777 127.908,31.2686 174.127,2.14971 47.4891,-28.728 91.5583,-90.5811 133.087,-183.801l426.816 -958.577 -274.577 -122.241 374.637 -841.418 1355.39 603.483 -1232.18 2767.37 -535.279 -238.325 82.08 -371.021c-197.187,103.968 -389.001,161.913 -576.221,172.173 -188.979,10.944 -373.953,-24.624 -559.121,-107.095 -337.603,-150.285 -536.745,-380.793 -600.65,-691.524 -63.4166,-312.002 10.3577,-704.715 221.811,-1179.61l1278.2 -2870.85z"/>
  <path class="fil0" d="M79829.3 140827l1542.03 -5754.98 1576.82 422.517 -248.487 2547.12c-22.572,228.065 -57.5537,481.341 -103.382,758.849 -45.828,277.509 -107.29,592.246 -182.237,946.167l46.7074 12.5074c90.1903,-411.279 171.879,-769.109 243.504,-1073.98 72.0154,-306.139 126.247,-524.237 161.913,-657.422l630.746 -2386.18 901.707 241.55 -1542.03 5755.08 -1350.51 -361.934 250.246 -3283.3c8.50114,-127.615 28.728,-320.503 60.4851,-577.589 31.3663,-255.718 67.9114,-535.67 109.44,-840.05l-30.5846 -8.208c-48.2709,243.993 -92.34,456.423 -131.133,638.661 -38.8903,182.335 -74.1651,329.883 -104.847,444.405l-916.755 3421.66 -913.629 -244.872z"/>
  <path class="fil0" d="M78270.5 140719l726.115 -5913.57 1182.44 145.106 -726.115 5913.67 -1182.44 -145.203z"/>
  <path class="fil0" d="M74765.4 140452l103.968 -5957.15 1632.22 28.4349 375.125 2531.58c33.2229,226.795 60.5829,481.047 83.2526,761.292 22.6697,280.44 39.1834,600.65 52.0817,962.193l48.2709 0.879429c-11.9211,-420.855 -19.2497,-787.87 -23.4514,-1100.95 -4.20171,-314.445 -4.39714,-539.285 -1.95429,-677.16l34.6886 -2467.87 933.367 16.3183 -103.968 5957.05 -1397.9 -24.3309 -551.499 -3246.36c-22.6697,-125.856 -49.6389,-317.962 -81.0051,-575.049 -31.464,-255.718 -63.8074,-536.256 -97.0303,-841.613l-31.6594 -0.586286c12.1166,248.487 20.8131,465.218 27.1646,651.461 6.44914,186.341 7.91486,337.994 5.86286,456.521l-61.8531 3541.75 -945.679 -16.416z"/>
  <path class="fil0" d="M73201.3 140601l-415.579 -5943.47 1188.4 -83.1549 415.677 5943.57 -1188.5 83.0571z"/>
  <path class="fil0" d="M69873.8 141102l-96.2486 -6032.98 1500.5 -264.513 1727.1 5745.4 -1213.9 213.994 -391.053 -1542.62 -581.205 102.502 124.879 1589.52 -1070.07 188.686z"/>
  <path class="fil0" d="M67086.8 142044l-1841.13 -5666.35 1321.88 -429.552c461.602,-149.991 821.093,-176.863 1082.38,-82.08 260.115,95.2714 448.509,322.555 564.789,680.678l193.474 595.275c96.7371,297.638 97.0303,548.47 2.93143,754.452 -94.0011,205.884 -283.176,364.572 -567.818,474.403l9.86914 30.1937c329.395,-83.8389 582.182,-77.5851 755.918,19.6406 175.397,98.2029 316.79,314.64 425.937,650.386l467.856 1439.92c37.4246,115.303 84.5229,229.042 139.047,338.971 56.3811,110.71 118.332,212.333 184.387,303.989l-1117.36 363.009c-66.9343,-85.5 -129.765,-185.364 -188.295,-298.419 -58.0423,-111.59 -108.951,-237.055 -152.825,-372.194l-67.3251 -207.154 -401.019 -1234.03c-51.4954,-158.688 -120.384,-268.226 -207.154,-329.981 -86.2817,-60.2897 -190.054,-71.6246 -310.634,-32.4411l-15.8297 5.17886 853.925 2628.03 -1133 368.09z"/>
  <path class="fil0" d="M65097.4 142939l-2080.14 -4672.01 -694.065 309.07 -343.173 -770.966 2465.04 -1097.53 343.27 770.966 -694.065 308.973 2080.14 4672.01 -1077.01 479.484z"/>
  <path class="fil0" d="M60616.9 145717l-3417.36 -4880.54 1138.47 -797.153c397.697,-278.486 733.639,-409.325 1011.15,-395.059 276.629,15.1457 523.162,177.351 739.111,485.835l359.1 512.707c179.501,256.402 253.178,496.095 223.375,720.643 -29.7051,224.352 -164.16,431.409 -404.342,619.704l18.2726 25.992c290.505,-176.472 534.106,-244.383 728.655,-202.171 196.406,42.5057 394.961,208.229 597.425,497.366l868.387 1240.19c69.5726,99.3754 147.842,194.354 232.169,283.469 86.184,89.4086 175.202,168.459 265.197,236.859l-962.388 673.838c-89.0177,-62.244 -178.329,-139.341 -267.346,-230.313 -88.1383,-89.7994 -173.541,-194.842 -255.034,-311.22l-124.879 -178.426 -744.29 -1062.94c-95.6623,-136.702 -193.572,-221.323 -294.609,-254.937 -100.157,-32.4411 -202.659,-12.996 -306.53,59.8011l-13.5823 9.47829 1584.93 2263.55 -975.873 683.316z"/>
  <path class="fil0" d="M59450.4 146784l-3829.72 -4564.04 912.554 -765.787 3829.81 4564.14 -912.651 765.689z"/>
  <path class="fil0" d="M57142 149347l-3871.44 -4627.94 999.617 -1149.9 4957.83 3378.18 -808.683 930.338 -1274.68 -952.714 -387.144 445.284 1097.33 1156.84 -712.826 819.921z"/>
  <path class="fil0" d="M55003.5 152693l-5159.9 -2979.02 595.666 -1031.77 4380.04 2528.85 513 -888.516 779.76 450.267 -1108.57 1920.18z"/>
  <path class="fil0" d="M53555.4 155710l-4997.11 -3381.5 643.839 -1380.9 5697.04 1880.71 -521.013 1117.17 -1487.9 -564.398 -249.367 534.79 1373.67 809.465 -459.159 984.667z"/>
  <path class="fil0" d="M52861.6 158042l-5909.56 -1006.07 337.114 -1175.6 3664.48 806.925c102.991,20.8131 240.866,50.3229 414.895,88.8223 173.931,38.4017 361.25,80.6143 560.098,127.615l8.01257 -27.8486c-215.558,-79.0509 -418.999,-154.584 -612.962,-228.847 -192.888,-72.504 -381.086,-146.474 -564.495,-222.105l-3254.96 -1294.81 291.873 -1017.89 5501.12 2430.84 -435.61 1518.97z"/>
  <path class="fil0" d="M52207.1 161911l-5767.49 -1772.73 212.04 -1508.81 5997.9 132.794 -171.489 1220.74 -1587.95 -104.75 -82.1777 584.331 1550.33 372.487 -151.164 1075.93z"/>
  <path class="fil0" d="M52174.9 165251l-5954.42 -207.936 56.9674 -1631.54 2537.74 -330.763c227.283,-29.3143 482.025,-52.2771 762.66,-69.9634 280.733,-17.784 601.236,-28.728 962.974,-35.3726l1.66114 -48.1731c-420.953,4.49486 -788.066,5.472 -1101.24,4.20171 -314.445,-1.27029 -539.187,-4.98343 -676.965,-9.86914l-2466.99 -77.7806 32.6366 -932.878 5954.32 207.936 -48.7594 1397.22 -3255.45 494.727c-126.247,20.4223 -318.842,44.1669 -576.417,71.0383 -256.207,26.9691 -537.233,54.3291 -843.177,82.2754l-1.07486 31.6594c248.585,-7.81714 465.511,-12.7029 651.852,-15.8297 186.341,-3.22457 338.091,-1.95429 456.521,2.14971l3540.19 123.609 -33.0274 945.288z"/>
  <path class="fil0" d="M49644 172772l-487.887 -2113.36 -2162.32 -189.957 1860.48 -1117.27 -487.887 -2113.36 1638.38 1420.37 1860.48 -1117.27 -848.844 1998.84 1639.55 1425.85 -2162.03 -188.589 -849.919 1994.74z"/>
  <path class="fil0" d="M98683.9 163040c15.3411,339.557 24.0377,680.775 24.0377,1023.85 0,80.5166 -1.27029,160.74 -2.14971,241.061 47.0006,267.444 140.611,474.794 280.342,621.267 219.369,229.922 596.546,349.622 1132.8,359.002l3017.91 52.668c537.722,9.38057 918.612,-88.7246 1141.5,-295.879 222.789,-205.689 339.362,-562.248 348.156,-1068.21l24.3309 -1389.69 -5957.15 -103.968 -9.77143 559.903z"/>
  <path class="fil0" d="M98294.6 159710c14.0709,73.4811 29.0211,146.669 42.408,220.443l3496.71 -491.503c117.355,-16.416 266.955,-41.6263 449.974,-77.0966 182.921,-35.4703 395.645,-77.976 639.149,-128.787l4.39714 31.2686c-296.465,80.712 -568.404,156.538 -816.012,227.479 -249.074,71.2337 -434.535,128.006 -555.408,170.023l-3093.05 1043.49c60.7783,415.579 110.026,834.675 148.33,1256.9l19.2497 136.702 5900.09 -829.203 -129.96 -924.377 -2442.95 351.674c-136.507,19.2497 -358.514,54.5246 -668.463,107.877 -308.582,53.1566 -669.929,117.843 -1083.75,195.429l-6.64457 -47.7823c354.996,-69.3771 668.757,-135.725 942.161,-201.975 273.307,-66.2503 520.133,-132.989 738.915,-201.389l2441.68 -766.471 -227.186 -1616.59 -5900.09 829.203 100.45 714.682z"/>
  <path class="fil1" d="M103924 163809l-4309.79 -75.1423 -1.07486 64.6869c-2.14971,124.097 22.4743,212.822 72.6017,264.708 50.0297,51.8863 133.771,79.5394 252.298,81.5914l3631.45 63.4166c137.875,2.34514 230.606,-22.1811 278.388,-73.7743 47.88,-52.8634 73.188,-160.056 76.1194,-325.486z"/>
  <path class="fil1" d="M100139 156376l121.263 422.81 1710 -629.475c95.8577,-36.1543 271.939,-92.34 527.559,-171.293 110.613,-34.6886 196.308,-60.6806 258.65,-78.5623l-12.5074 -43.6783c-222.691,53.8406 -400.238,94.6851 -533.813,124.293 -133.478,29.7051 -221.616,47.7823 -264.122,54.3291l-1807.03 321.578z"/>
  <path class="fil1" d="M94116.5 142627l-2501.19 2980.77c-67.3251,80.2234 -103.577,147.06 -108.561,202.366 -5.08114,53.1566 19.836,102.893 73.6766,148.135 58.14,48.7594 114.326,65.2731 166.798,50.0297 53.5474,-14.5594 113.055,-61.8531 178.622,-140.025l2501.19 -2980.77c67.3251,-80.2234 103.577,-146.962 106.802,-200.119 4.20171,-52.2771 -22.7674,-103.773 -80.9074,-152.434 -53.8406,-45.2417 -107.974,-60.0943 -160.447,-44.7531 -53.5474,14.4617 -112.176,60.6806 -175.983,136.8z"/>
  <path class="fil1" d="M70856.8 138500l433.265 -76.4126 -447.336 -1766.48c-25.8943,-98.9846 -63.3189,-280.049 -115.205,-542.51 -22.8651,-113.544 -39.7697,-201.585 -51.1046,-265.49l-44.7531 7.91486c30.2914,227.186 52.3749,408.055 67.9114,543.878 15.5366,135.823 24.3309,225.427 26.3829,268.421l130.839 1830.68z"/>
  <path class="fil1" d="M67485.6 137887l-293.143 -902.196c-41.724,-128.494 -94.2943,-205.689 -158.199,-232.755 -65.1754,-26.7737 -172.173,-16.5137 -324.216,32.9297l502.74 1547.4 61.7554 -20.1291c117.941,-38.304 192.888,-88.7246 223.473,-150.871 30.4869,-62.1463 26.8714,-153.705 -12.4097,-274.382z"/>
  <path class="fil1" d="M59770.5 141656l-544.073 -777.024c-77.4874,-110.71 -150.382,-169.046 -219.369,-176.374 -70.1589,-6.44914 -169.437,34.5909 -300.471,126.345l933.269 1332.73 53.1566 -37.1314c101.623,-71.2337 158.59,-141.393 169.632,-209.695 10.944,-68.3023 -19.3474,-154.877 -92.1446,-258.845z"/>
  <path class="fil1" d="M56255 146781l288.55 -331.935 -1459.27 -1091.37c-82.4709,-60.5829 -225.525,-177.742 -431.018,-349.133 -89.2131,-73.7743 -157.711,-131.523 -206.763,-174.127l-29.8029 34.2977c166.505,157.515 297.442,284.153 395.059,380.011 97.6166,95.76 160.74,159.861 189.37,192.009l1253.87 1340.25z"/>
  <path class="fil1" d="M51983.5 153517l185.95 -398.772 -1703.55 -646.771c-96.0531,-35.568 -265.783,-108.658 -510.557,-216.828 -106.118,-46.3166 -187.905,-82.9594 -246.729,-110.417l-19.2497 41.2354c203.441,105.531 364.279,191.129 484.467,256.402 120.189,65.0777 198.555,109.342 235.003,132.305l1574.67 942.845z"/>
  <path class="fil1" d="M50050.3 160304l61.2669 -435.61 -1818.27 -120.482c-102.111,-5.96057 -285.912,-26.2851 -551.597,-58.0423 -115.107,-13.2891 -204.027,-24.4286 -268.226,-33.516l-6.35143 45.0463c225.427,41.4309 404.244,76.3149 538.21,103.577 134.064,27.0669 221.909,46.4143 263.438,57.8469l1781.53 441.18z"/>
  <path class="fil2" d="M76200.6 173127c0,-369.849 -436.294,-1629.58 0,-1629.58 0,875.911 614.525,600.357 945.483,600.357 0,-432.972 1374.06,-1072.02 1890.87,-1072.02 0,-42.8966 1736.87,-900.535 1755.83,-900.535 0,-1106.32 11930.7,-783.864 11930.7,-4245.49 -3033.64,0 -11300.4,-290.016 -11300.4,-300.178 -2525.82,0 -5770.42,0 -8554.1,0 0,-42.8966 0,-85.7931 0,-171.586 -1890.87,0 -3826.78,0 -5762.7,0 0,-42.7989 0,-85.6954 0,-128.592 -2001.87,0 -2847.2,0 -4592.18,0 0,-128.69 0,-300.178 0,-471.765 664.262,0 5897.74,-193.963 5897.74,171.586 8222.27,0 16410.3,300.178 24626.7,300.178 0,462.384 876.595,1329.4 1305.66,1329.4 0,911.479 63.8074,1372.2 -1305.66,1372.2 0,1099.48 -5344.39,2144.24 -6843.22,2144.24 0,-1048.38 -3708.65,-249.465 339.166,327.245 -136.898,524.335 -83.1549,872.784 -339.166,873.468 -1750.84,-3528.37 -8554.1,3340.27 -8869.23,1200.71 -87.7474,0 -810.442,526.387 -810.442,600.357 -89.9949,0 -180.087,0 -315.129,0z"/>
  <path class="fil2" d="M95604.9 167081c0,-636.12 -90.3857,-471.667 1575.74,-471.667 0,762.367 -790.411,471.667 -1575.74,471.667z"/>
  <path class="fil2" d="M62334.1 164336c0,-171.586 0,-385.971 0,-600.357 224.841,0 4952.36,-3367.23 4952.36,-3473.55 467.563,0 3196.53,203.539 3196.53,-171.586 333.401,0 280.538,-128.592 630.257,-128.592 0,-446.945 1890.87,-235.101 1890.87,0 562.443,0 585.113,471.667 1260.61,471.667 0,-243.309 70.7451,-171.489 315.129,-171.489 0,-187.318 2775.28,-1672.48 -135.041,-1672.48 0,-38.6949 -1821.1,-900.535 -2070.96,-900.535 0,-239.498 -180.087,-178.719 -180.087,-600.357 689.765,0 5762.7,-375.907 5762.7,0 3710.6,0 6442.21,2101.25 9679.67,2101.25 0,191.422 -19.5429,171.489 180.087,171.489 0,202.855 -116.475,128.69 -315.226,128.69 0,330.274 -495.216,255.132 -495.216,0 -270.082,0 -540.262,0 -810.345,0 0,128.69 0,300.178 0,471.765 551.597,0 2070.96,1165.73 2070.96,1672.38 45.0463,0 90.0926,0 180.087,0 0,372.682 3556.7,2701.7 3961.92,2701.7 0,85.7931 0,214.385 0,343.075 -10029.3,0 -20044.3,-343.075 -30074.3,-343.075z"/>
  <path class="fil2" d="M70933.1 153640c0,-232.169 134.748,-771.943 -135.041,-771.943 0,-389.196 135.041,-664.164 135.041,-900.535 383.919,0 222.202,171.586 495.216,171.586 0,214.385 0,471.667 0,728.949 -330.47,0 -180.087,488.865 -180.087,771.943 -89.9949,0 -180.087,0 -315.129,0z"/>
  <path class="fil2" d="M69987.7 146993c0,-393.691 82.2754,-471.765 495.314,-471.765 0,-262.949 315.129,-275.554 315.129,0 89.9949,0 180.087,0 315.129,0 0,751.716 -437.662,471.765 -1125.57,471.765z"/>
  <path class="fil2" d="M66791.1 146821c0,-276.727 -134.943,-60.876 -134.943,-300.276 180.087,0 405.026,0 630.159,0 0,85.7931 0,171.586 0,300.276 -134.943,0 -315.031,0 -495.216,0z"/>
  <path class="fil2" d="M72664.6 175794c0,-349.426 -53.0589,-857.638 315.129,-857.638 0,-2180.01 313.174,-300.178 630.355,-300.178 0,1286.02 135.041,-867.801 135.041,-1200.71 -822.657,0 -2386.18,-445.186 -2386.18,-1372.3 -361.25,0 -2521.22,-519.84 -2521.22,-600.357 -225.036,0 -450.17,0 -630.257,0 0,-367.894 -55.7949,-771.943 450.17,-771.943 0,-949.001 -6843.22,-513.098 -6843.22,-1801.07 -1675.41,0 -3310.76,-771.943 -4772.27,-771.943 0,-407.859 -1575.74,26.8714 -1575.74,-1200.71 -306.432,-53.8406 -429.747,16.9046 -539.871,-240.963 -1747.42,66.0549 -144.422,-1588.74 -90.3857,-2332.05 -1728.96,0 -924.768,-1372.2 -2251.14,-1372.2 0,-128.69 0,-214.483 0,-300.178 -331.447,0 399.456,-3888.25 1032.74,-6170.95 180.674,-529.416 379.718,-1050.62 597.132,-1562.26 138.363,8.40343 727.776,170.023 756.309,142.761 293.338,-279.756 436.587,-1.27029 495.216,0 614.232,14.5594 5402.53,-156.147 5402.53,171.586 686.541,0 4277.05,333.206 4277.05,-300.178 -167.873,0 -135.041,-6.35143 -135.041,-171.586 -419.194,0 -1260.61,194.158 -1260.61,0 -460.43,0 -4141.91,137.679 -4141.91,-128.592 -180.381,0 -630.355,294.413 -630.355,0 -190.934,0 -315.129,-77.4874 -315.129,128.592 -90.0926,0 -135.041,0 -180.087,0 0,-225.915 -2516.05,-61.0714 -3016.44,-300.178 -71.136,-33.6137 -818.455,-102.893 -983.201,-146.571 3651.97,-7949.45 11692.3,-13493 20987.8,-13493 9656.81,0 17958.9,5983.14 21393.3,14431.3 1492.19,3947.07 1660.46,7447.49 1553.66,8702.04 0,504.206 50.5183,869.559 103.87,1132.41 -10.944,214.874 -25.5034,428.77 -42.408,642.081 -208.815,-0.879429 -653.025,-73.188 -1522.49,-73.188 0,-42.8966 -2501.88,83.2526 -2501.88,40.356 -392.421,0 -613.255,-471.765 -810.442,-471.765 0,-254.35 -79.5394,-900.535 -315.129,-900.535 0,-171.489 0,-343.075 0,-471.667 -958.577,0 -4457.14,-2054.35 -4457.14,-2873.19 285.228,0 135.139,-944.604 135.139,-1200.71 253.08,0 675.303,-232.56 675.303,-471.765 -255.425,0 -675.303,-50.616 -675.303,-300.178 -318.158,0 -1710.88,-322.457 -1710.88,-600.357 -1001.47,0 -7833.75,-1930.35 -7833.75,-1972.66 -2738.83,0 -5524.96,-128.69 -8418.97,-128.69 0,-163.085 36.5451,-171.489 -135.041,-171.489 0,-137.973 -468.638,-1200.71 135.041,-1200.71 0,-292.263 221.421,-171.586 495.216,-171.586 0,-172.661 135.041,-140.122 135.041,-428.77 391.248,0 180.087,-3315.54 180.087,-3816.62 -260.409,0 -450.951,-300.178 -630.257,-300.178 0,-653.22 -630.257,-1467.67 -630.257,-2272.83 521.794,0 1121.08,-428.868 1890.87,-428.868 0,-85.7931 0,-128.592 0,-171.489 436.881,0 -15.6343,-729.046 630.257,-729.046 0,-212.431 315.226,-391.053 315.226,-643.253 -45.0463,0 -90.0926,0 -135.139,0 0,-128.69 0,-214.385 0,-300.178 -428.77,0 -695.823,-128.69 -1305.56,-128.69 0,42.8966 0,85.7931 0,128.69 -630.355,0 -1260.61,0 -1890.97,0 0,-343.954 -495.216,-793.538 -495.216,-1200.71 -258.747,0 -671.493,0 -945.483,0 0,496.877 -450.17,525.41 -450.17,1072.02 -195.917,0 -360.175,-86.9657 -360.175,128.69 -1623.91,0 -2781.05,0 -4096.96,0 0,128.69 0,214.385 0,300.178 45.0463,0 90.0926,0 135.041,0 0,275.652 315.226,262.949 315.226,0 270.082,0 540.262,0 810.345,0 0,196.797 -74.3606,300.178 135.041,300.178 0,171.489 0,343.075 0,471.765 -244.774,0 -135.041,260.506 -135.041,471.667 106.313,0 2206.1,1667.2 2206.1,1801.07 89.9949,0 135.041,0 180.087,0 0,257.379 0,514.661 0,771.943 -661.819,0 -821.484,600.357 -1125.57,600.357 0,385.971 0,729.046 0,1072.12 -330.079,0 74.556,300.178 -315.129,300.178 0,471.667 0,900.535 0,1329.4 -45.0463,0 -90.0926,0 -135.139,0 0,85.6954 0,128.592 0,171.489 -405.123,0 -765.298,0 -1125.47,0 0,171.586 0,343.075 0,471.765 45.0463,0 89.9949,0 135.041,0 0,42.7989 0,85.6954 0,128.592 90.0926,0 135.041,0 180.087,0 0,346.104 1440.7,495.509 1440.7,900.535 406.003,0 315.813,300.178 630.257,300.178 0,266.662 113.837,471.765 -180.087,471.765 0,154.095 -1228.27,1972.66 -1440.6,1972.66 0,490.526 -315.226,310.243 -315.226,771.845 358.905,0 298.126,1801.17 0,1801.17 0,486.226 -6387.68,3945.21 -6978.27,3945.21 0,42.8966 0,85.7931 0,128.69 -322.066,0 -294.022,643.253 0,643.253 0,203.441 315.129,504.499 315.129,900.535 158.199,0 495.216,130.644 495.216,300.178 720.35,0 1395.65,0 2070.96,0 0,158.688 1105.64,300.178 1395.75,300.178 17.784,170.902 196.894,174.029 214.971,-41.9194 120.091,17.9794 200.119,29.9983 280.245,41.9194 0,27.5554 2364,771.943 3016.44,771.943 0,230.019 819.823,428.77 -135.139,428.77 0,294.022 135.139,55.3063 135.139,300.178 836.043,0 1377.19,0 2251.04,0 0,319.037 356.071,171.586 630.257,171.586 0,87.6497 4277.05,2795.7 4277.05,3645.04 258.454,0 549.252,128.69 945.483,128.69 0,-364.474 495.216,-710.676 495.216,-128.69 -877.67,0 0,874.641 0,900.633 282.003,0 135.041,816.598 135.041,1072.02 1411.97,0 834.578,128.69 2251.14,128.69 0,821.191 875.227,0 1125.47,0 0,85.6954 0,128.592 0,171.489 45.0463,0 90.0926,0 135.139,0 0,343.075 0,686.15 0,1029.22 -1587.47,0 -3570.38,600.357 -4907.41,600.357 0,406.882 -234.123,257.282 -630.257,257.282z"/>
  <path class="fil1" d="M86092.8 154736c-463.459,43.8737 -682.046,59.0194 -1188.69,304.966 -313.956,202.953 1057.37,507.039 1521.12,739.013 -800.378,1444.71 1553.56,1085.8 2380.71,1188.69 144.91,-145.008 851.58,-419.781 996.588,-564.691 289.821,347.863 464.436,811.126 754.354,1158.99 188.686,230.41 578.957,42.5057 695.726,-260.897 0,-492.871 -100.743,-956.721 -100.743,-1449.49 724.649,-666.802 1939.04,-1160.26 2274.89,-2029.13 -710.676,72.6017 -1983.11,231.681 -2276.06,448.509 -231.974,260.897 -204.516,478.507 -767.741,595.08 -1498.84,166.407 -2785.54,111.59 -4290.15,-131.035zm-11278.4 -5561.51c-43.4829,-165.821 -192.497,-505.867 0,-600.357 391.834,-192.497 780.933,-386.655 1395.65,-171.489 215.167,75.3377 570.749,513.782 810.442,471.667 42.1149,-7.32857 128.494,-54.8177 180.087,-128.592 73.7743,-105.336 -43.4829,-305.846 0,-471.765 56.3811,-214.581 304.282,-136.507 315.129,-171.489 85.8909,-277.899 -1382.27,-679.114 -1440.7,-900.535 -180.087,-682.241 -1773.32,-994.634 -1935.92,-1672.48 -87.552,-364.865 -445.773,-771.552 -765.298,-729.046 -42.5057,5.56971 42.7011,125.563 0,128.69 -576.612,42.7011 -442.646,-431.409 315.129,-900.535 469.126,-290.407 1394.09,-384.603 1890.87,-300.178 609.053,103.577 -1062.25,574.755 -945.483,600.357 571.629,125.661 1526.88,-538.503 1755.83,0 538.503,1266.28 -1800.78,-991.409 -1755.83,1200.71 0.879429,44.9486 1469.82,963.072 1575.74,1243.61 84.5229,223.766 625.958,428.282 630.355,428.868 284.935,42.408 526.094,-109.733 675.303,171.489 79.1486,149.21 890.763,926.722 1080.52,0 38.7926,-189.761 1020.72,-734.909 1125.57,-771.845 297.149,-104.847 719.763,-219.857 945.386,0 219.857,214.385 851.287,402.29 945.483,908.938 10.944,59.2149 313.077,-337.701 360.175,-246.729 135.041,261.19 140.513,801.453 450.17,838.682 0,1147.85 1560.4,471.667 2386.18,471.667 0,-324.998 1062.45,-1972.56 1260.61,-1972.56 0,-42.8966 0,-85.7931 0,-128.69 363.888,0 -253.373,-564.691 0,-771.943 253.373,-207.252 720.35,0 1125.47,0 0,935.907 3495.92,2573.01 4637.23,2573.01 0,85.7931 0,171.586 0,300.178 -2075.55,0 -3258.19,-1801.07 -5267.48,-1801.07 0,252.396 -403.071,600.357 -180.087,600.357 0,302.426 360.175,-103.675 360.175,600.357 -441.375,0 -645.305,128.69 -990.432,128.69 39.9651,1418.62 -2862.25,1486.43 -4015.67,438.053 -352.26,-320.21 -489.255,-599.086 -756.602,-1167.1 -290.505,-617.359 -1445.29,-341.316 -1575.84,0 -144.226,376.786 -775.461,646.087 -810.345,729.046 -82.9594,197.578 114.228,461.798 0,643.253 -71.9177,114.228 -275.066,41.724 -450.17,0 -417.338,-98.6914 -285.423,-572.606 -495.314,428.77 -68.8886,330.079 -2719.58,444.307 -2836.35,0zm18098.6 6389.63c0,-353.726 2585.81,-171.489 3016.44,-171.489 0,317.865 488.571,42.6034 180.087,300.178 -44.6554,496.682 -2680.3,-128.69 -3196.53,-128.69zm990.53 4974.54c517.006,0 1395.65,-278.095 1395.65,300.178 -638.465,0 -1395.65,478.8 -1395.65,-300.178zm1575.74 3816.62c0,-128.69 0,-300.178 0,-471.765 414.406,0 564.886,128.69 810.345,128.69 0,85.7931 0,214.385 0,343.075 -270.082,0 -540.262,0 -810.345,0zm-37728 -4116.8c0,-919.003 1789.44,-128.69 1305.56,-128.69 0,270.669 -1040.27,128.69 -1305.56,128.69zm-630.355 1843.97c557.851,0 630.355,-140.611 630.355,428.868 -337.701,0 -1260.61,-153.411 -1260.61,0 -1397.12,0 630.257,-1493.37 630.257,-428.868zm-1080.52 1929.76c898.678,0 1080.52,1256.8 1080.52,2144.14 -907.473,0 -1080.52,-1242.63 -1080.52,-2144.14zm4772.27 3344.86c0,-202.366 -1352.85,-428.77 -1620.69,-428.77 0,-850.505 2711.86,428.77 1620.69,428.77zm21160.1 -23328.5c-332.424,-346.006 304.38,-300.178 765.396,-300.178 0,479.777 -446.066,632.602 -765.396,300.178zm-4637.23 300.178c-514.27,-179.892 1467.86,-753.866 1890.87,-471.765 282.101,188.1 904.639,-47.4891 1125.57,171.586 219.075,217.219 82.2754,417.045 -135.041,471.667 -864.087,217.317 -1411.87,342.782 -2881.4,-171.489zm3961.92 1072.02c506.649,-838.291 1472.75,-600.357 2386.09,-600.357 0,-433.167 180.087,-172.368 180.087,-471.667 585.309,0 1170.62,0 1755.83,0 0,85.6954 0,171.489 0,300.178 -450.17,0 -945.386,0 -1440.7,0 0,545.148 -1220.65,471.667 -1755.83,471.667 0,879.135 -1414.51,778.392 -1125.47,300.178zm-3781.84 1072.12c236.273,-322.359 790.02,357.243 450.267,600.357 -474.598,339.753 -772.627,-160.349 -450.267,-600.357zm-4141.91 1929.76c-96.0531,-183.41 17.8817,-205.884 -180.087,-300.178 -186.341,-88.7246 863.306,-367.21 630.257,300.178 -77.292,221.421 -348.254,195.624 -450.17,0zm2836.25 2744.5c0,-630.941 -179.794,-494.337 -135.041,-900.535 4.88571,-44.7531 128.592,-44.46 135.041,0 44.46,303.11 495.314,279.561 495.314,900.535 -342.098,0 -159.079,0 -495.314,0zm5087.49 300.178c0,42.8966 0,85.7931 0,171.586 -537.135,0 -507.528,-471.765 -135.041,-471.765 0,-226.697 240.475,-128.592 450.17,-128.592 0,-921.055 3309.78,428.77 4457.14,428.77 0,42.8966 0,85.7931 0,171.586 45.0463,0 89.9949,0 180.087,0 0,566.547 -4814.48,-171.586 -4952.36,-171.586zm-2836.35 771.943c-424.471,-1006.16 -404.537,-900.535 -810.442,-900.535 0,-850.114 1125.57,18.468 1125.57,600.357 283.274,0 315.129,198.36 315.129,428.77 -344.931,0 -399.163,-128.592 -630.257,-128.592zm-180.087 3173.37c-580.13,0 -4772.27,197.871 -4772.27,-171.586 -878.549,0 -765.396,184.485 -765.396,-300.178 720.545,0 6032.88,-605.047 6032.88,171.586 790.509,0 5222.54,-422.419 5222.54,471.667 -649.116,0 -5717.75,194.549 -5717.75,-171.489z"/>
  <path class="fil1" d="M80154.2 180143c474.403,0 1419.69,0 1894.09,0 1323.05,109.733 640.517,-3049.96 2112.58,-3270.5 4197.81,27.0669 7353.68,4.00629 11129.6,31.1709 308.875,-50.2251 332.326,284.153 367.992,382.258 3776.36,9.08743 7155.32,18.0771 10931.3,27.36 2512.53,158.883 336.333,2649.33 -1219.67,2783.39 -160.056,1594.5 -2528.06,2271.17 -3308.41,2203.26 -849.333,2025.62 -2889.7,1855.79 -3590.71,1896.93 -1188.69,1436.6 -2551.22,1396.63 -3243.92,1195.83 -1014.18,767.643 -1953.7,890.373 -2843.78,492.675 -1088.05,805.459 -1842.4,394.766 -2583.27,9.67371 -1.85657,497.757 33.3206,995.611 -241.452,1344.45 -517.104,-68.5954 -924.377,-162.792 -1391.55,-454.958 -266.467,2482.72 -1757.98,1319.44 -1825.5,1024.14 -521.11,1118.34 -1352.46,500.102 -1625.09,80.4189 -470.494,1068.21 -1126.84,400.042 -1299.31,227.967 -554.431,-206.275 -1109.64,-412.745 -1664.17,-618.531 -26.9691,-98.8869 -28.9234,-123.022 -56.088,-221.127 -610.812,784.353 -1325.49,1069.39 -1296.47,127.517 -955.548,1387.93 -1104.56,-275.261 -1117.27,-525.117 447.629,-2195.93 423.591,-4540.59 871.123,-6736.81z"/>
  <path class="fil0" d="M94281.7 179281l-21.6926 0 -9192.67 0c-6.35143,60.7783 -14.5594,126.735 -25.5034,197.187 -0.684,5.17886 -1.85657,9.67371 -2.63829,14.6571 2780.56,334.378 5575.48,538.992 8370.6,712.142 588.142,37.1314 913.726,-350.501 871.905,-923.986z"/>
  <path class="fil0" d="M94746.1 179328c3425.77,214.385 6854.85,369.067 10286.1,460.821 570.163,-48.564 3784.18,-1968.16 1346.7,-2120.6 -3546.44,-8.01257 -7093.18,-17.8817 -10639.9,-25.992 -285.033,612.864 -477.823,991.409 -1026.68,1387.93 18.1749,93.5126 30.096,194.451 33.8091,297.833z"/>
  <path class="fil0" d="M92988.8 181774c2074.28,1093.91 6847.33,3632.53 8507.59,585.993 -2690.17,-310.145 -5353.08,-785.525 -7990.88,-1394.97 -108.951,302.523 -276.531,591.953 -516.713,808.977z"/>
  <path class="fil0" d="M91951.2 182125c-55.0131,171.098 -165.626,396.818 -363.106,602.115 1145.02,865.358 2374.07,1611.99 3626.27,2310.26 1000.11,285.619 2018.78,-142.077 2723,-848.453 -1895.95,-462.873 -3690.86,-1215.57 -5406.04,-2138.97 -186.048,65.4686 -383.822,87.2589 -580.13,75.0446z"/>
  <path class="fil0" d="M84855.8 180195c537.624,126.442 6928.43,1580.24 6952.86,1448.81 703.25,133.478 1150.29,-378.154 1315.14,-994.047 -2733.26,-171.977 -5465.36,-376.884 -8185.04,-705.009 -24.2331,84.3274 -51.984,167.775 -82.9594,250.246z"/>
  <path class="fil0" d="M84611.4 180708c1631.54,855.489 3356.88,1526.1 5103.91,2105.65l76.9989 25.2103c637.488,44.0691 1412.46,-116.866 1693.68,-762.953 -2287.78,-422.81 -4560.81,-921.837 -6824.95,-1454.48 -16.3183,29.1189 -32.5389,57.9446 -49.6389,86.5749z"/>
  <path class="fil0" d="M89964.1 183306c770.184,815.035 1623.52,1547.89 2506.37,2237.46 776.633,333.89 1554.05,179.208 2250.65,-256.207 -1214.39,-685.466 -2400.35,-1419.5 -3508.82,-2267.36 -376.982,217.707 -816.891,292.459 -1248.2,286.107z"/>
  <path class="fil0" d="M91955.1 185722c-815.719,-647.748 -1601.83,-1332.63 -2318.27,-2090.01 -257.184,361.543 -679.505,546.418 -1109.74,607.197 366.429,408.641 757.383,792.658 1171.5,1153.03l22.8651 12.1166c709.894,364.474 1435.23,734.616 2233.65,317.669z"/>
  <path class="fil0" d="M84291.2 181148c1101.53,925.354 2243.72,1800.97 3422.44,2625.97 544.269,75.24 1328.03,48.8571 1614.83,-518.57 12.0189,-23.94 23.1583,-48.7594 33.2229,-74.7514 -1715.96,-577.491 -3416.19,-1243.71 -5017.34,-2094.51 -17.2954,20.9109 -35.1771,41.6263 -53.1566,61.8531z"/>
  <path class="fil0" d="M83690 181655l1973.73 2110.24 57.456 62.3417 0.684 6.05829c385.678,273.795 1063.23,299.983 1515.55,170.023 -1128.8,-798.814 -2224.95,-1644.92 -3281.54,-2536.57 -82.6663,66.0549 -171.293,128.885 -265.881,187.905z"/>
  <path class="fil0" d="M82444.3 184039c254.643,308.582 803.211,307.311 1128.01,120.189 10.944,-5.96057 20.2269,-11.8234 29.412,-17.2954l-1485.26 -1998.84c-29.0211,2.54057 -57.9446,4.98343 -86.9657,7.13314l-15.4389 0 -729.437 0c345.811,626.446 755.234,1214.98 1124.3,1828.23l35.3726 59.3126 0 1.27029z"/>
  <path class="fil0" d="M82632.4 182067l1442.36 1941.29 1.368 1.46571 0.781714 -0.684c130.449,179.11 989.259,234.417 1162.31,22.9629l0.586286 0c6.74229,-7.81714 12.2143,-17.3931 16.2206,-28.1417l-1992.2 -2129.98c-190.347,78.9531 -400.238,144.422 -631.43,193.083z"/>
  <path class="fil0" d="M81590.3 186988c361.054,-736.375 471.178,-1525.32 582.573,-2318.76 2.83371,-22.6697 6.44914,-45.3394 9.38057,-68.3023 -103.479,65.4686 -229.14,94.0011 -368.481,93.024 -100.646,-0.586286 -209.793,-17.8817 -322.457,-47.3914 -50.7137,891.154 -336.919,1691.63 -714.585,2491.62 -1.75886,729.828 574.365,146.571 813.569,-150.187z"/>
  <path class="fil0" d="M82733.7 187401c374.148,-836.727 520.524,-1763.94 554.822,-2674.83 -6.25371,0.586286 -12.6051,1.85657 -19.2497,2.34514 -201.096,26.676 -418.51,18.8589 -621.658,-39.3789 -4.39714,-1.46571 -8.892,-2.63829 -13.1914,-3.71314 -2.14971,15.4389 -4.104,31.1709 -6.44914,47.0006 -112.958,806.827 -225.427,1609.65 -592.637,2390.78 1.66114,7.81714 3.61543,15.5366 5.27657,23.0606l693.087 254.741z"/>
  <path class="fil0" d="M84524.7 187473c233.244,-942.65 312.49,-1895.17 353.53,-2861.95 -309.852,15.4389 -643.449,-32.5389 -927.602,-159.47 -42.7011,38.5971 -92.5354,74.4583 -147.744,106.02 -16.0251,9.28286 -32.4411,18.5657 -49.248,26.8714 -21.1063,1010.46 -179.11,2046.53 -587.654,2975.3l405.123 148.917 46.1211 17.1 35.8611 34.9817c383.235,378.643 672.861,153.021 871.611,-287.769z"/>
  <path class="fil0" d="M86152.3 187497c10.6509,-91.7537 17.6863,-155.17 21.4971,-190.152 105.336,-922.618 210.086,-1837.42 144.422,-2800.59 -249.66,-32.0503 -497.463,-97.3234 -706.083,-204.321 -5.66743,7.32857 -11.2371,14.5594 -17.3931,22.1811l0.781714 0c-66.0549,80.712 -152.63,142.467 -252.298,187.025 -41.3331,1011.25 -116.671,2011.84 -353.237,2999.05 377.47,472.058 864.771,575.635 1162.31,-13.1914z"/>
  <path class="fil0" d="M87860.2 184253c181.358,603.386 325.877,1419.59 401.313,2052 333.987,206.275 647.748,368.187 1037.63,439.323 140.025,-301.253 92.4377,-688.593 87.7474,-1013.79 -523.162,-449.388 -1007.92,-947.242 -1454.28,-1472.26 -24.0377,-1.75886 -48.1731,-3.32229 -72.4063,-5.27657z"/>
  <path class="fil0" d="M87833.6 186581c-86.0863,-765.982 -213.994,-1486.43 -401.997,-2156.16 -9.67371,3.51771 -19.836,6.54686 -29.7051,9.576 -200.021,63.0257 -413.038,88.3337 -622.44,93.9034 62.0486,987.989 -42.9943,1905.04 -148.917,2830 -7.13314,65.0777 -13.3869,117.648 -18.1749,158.102 29.8029,53.352 139.536,147.353 287.28,219.857 174.225,85.2069 365.158,97.2257 518.472,-38.4994l-0.488571 -0.195429c178.329,-158.493 334.085,-494.727 415.97,-1116.58z"/>
  <path class="fil0" d="M79988.5 182343c36.6429,-216.828 74.3606,-433.461 113.544,-650.484 0.977143,-6.35143 2.736,-13.0937 3.81086,-19.152l-0.390857 0c70.0611,-388.023 144.031,-776.535 221.811,-1166.71l1810.74 0c1689.77,89.1154 980.758,-3127.44 2086.69,-3234.05 1.56343,-0.195429 8.40343,0.195429 20.3246,1.17257l17.4909 0c2067.34,12.996 3879.84,13.8754 5639.68,15.048 1770.19,1.07486 3487.52,2.24743 5359.34,15.3411l37.2291 -3.51771c29.6074,-4.98343 40.7469,49.8343 47.7823,85.5977l0 0c0.390857,2.14971 1.17257,4.39714 1.46571,6.54686 -304.869,657.91 -480.168,1015.84 -1151.56,1427.31l-9565.06 0c-98.7891,2671.02 -2077.11,2868.99 -4145.33,2868.99l0 460.918 276.922 0c360.957,692.501 805.459,1332.53 1211.27,1998.16 -4.39714,21.3017 -11.0417,37.2291 -19.2497,48.4663 -213.994,279.854 -1284.94,-461.602 -1409.63,-632.407l-370.826 271.841c146.669,200.705 496.389,460.43 863.208,639.345 -26.8714,897.408 -308.582,1687.43 -688.104,2490.15 -452.026,644.133 -654.002,538.503 -711.555,-236.957 219.759,-1080.33 227.87,-1817.68 235.882,-2555.23 6.44914,-560.391 12.5074,-1121.47 114.521,-1830.38z"/>
  <path class="fil0" d="M86924.4 188234c-125.465,-4.59257 -253.08,-57.456 -377.861,-172.759 114.521,78.4646 243.211,138.95 377.861,172.759z"/>
  <path class="fil0" d="M93978 180601c5810.48,1083.55 9651.73,2350.42 10856.3,-357.537 -3380.43,-92.5354 -6759.09,-245.361 -10134,-456.717 -94.6851,378.936 -343.27,687.029 -722.206,814.253z"/>
  <path class="fil1" d="M70504.7 180143c-474.11,0 -1420.08,0 -1894.29,0 -1323.15,109.733 -640.419,-3049.96 -2112.49,-3270.5 -4197.81,27.0669 -7353.59,4.00629 -11129.9,31.1709 -308.777,-50.2251 -331.74,284.153 -367.894,382.258 -3775.97,9.08743 -7155.03,18.0771 -10931.5,27.36 -2512.23,158.883 -335.746,2649.33 1220.06,2783.39 159.958,1594.5 2527.67,2271.17 3308.02,2203.26 849.723,2025.62 2890.19,1855.79 3590.8,1896.93 1188.89,1436.6 2551.42,1396.63 3244.02,1195.83 1014.27,767.643 1953.8,890.373 2843.49,492.675 1088.73,805.459 1842.31,394.766 2583.47,9.67371 2.24743,497.757 -33.0274,995.611 241.843,1344.45 517.006,-68.5954 924.084,-162.792 1391.55,-454.958 265.978,2482.72 1757.78,1319.44 1825.3,1024.14 521.208,1118.34 1352.46,500.102 1625.48,80.4189 469.81,1068.21 1126.06,400.042 1298.62,227.967 555.017,-206.275 1109.55,-412.745 1664.27,-618.531 27.1646,-98.8869 29.1189,-123.022 55.8926,-221.127 611.203,784.353 1325.79,1069.39 1296.86,127.517 955.548,1387.93 1104.37,-275.261 1117.27,-525.117 -447.629,-2195.93 -423.591,-4540.59 -870.927,-6736.81z"/>
  <path class="fil0" d="M56377 179281l21.5949 0 9192.47 0c6.74229,60.7783 15.048,126.735 25.992,197.187 0.879429,5.17886 1.56343,9.67371 2.44286,14.6571 -2780.36,334.378 -5575.87,538.992 -8370.01,712.142 -589.022,37.1314 -914.019,-350.501 -872.491,-923.986z"/>
  <path class="fil0" d="M55912.5 179328c-3425.57,214.385 -6854.66,369.067 -10286.1,460.821 -569.87,-48.564 -3783.99,-1968.16 -1346.5,-2120.6 3546.34,-8.01257 7093.08,-17.8817 10639.5,-25.992 285.033,612.864 478.311,991.409 1026.98,1387.93 -17.9794,93.5126 -30.1937,194.451 -33.9069,297.833z"/>
  <path class="fil0" d="M57669.5 181774c-2073.79,1093.91 -6846.64,3632.53 -8506.91,585.993 2689.88,-310.145 5352.89,-785.525 7990.68,-1394.97 109.049,302.523 276.238,591.953 516.225,808.977z"/>
  <path class="fil0" d="M58707.3 182125c55.2086,171.098 165.626,396.818 363.399,602.115 -1144.92,865.358 -2374.16,1611.99 -3626.37,2310.26 -1000.3,285.619 -2018.58,-142.077 -2722.81,-848.453 1895.56,-462.873 3691.06,-1215.57 5405.75,-2138.97 186.048,65.4686 384.115,87.2589 580.032,75.0446z"/>
  <path class="fil0" d="M65802.9 180195c-537.526,126.442 -6928.24,1580.24 -6953.06,1448.81 -703.054,133.478 -1150,-378.154 -1314.94,-994.047 2733.26,-171.977 5465.26,-376.884 8184.55,-705.009 24.624,84.3274 52.5703,167.775 83.448,250.246z"/>
  <path class="fil0" d="M66047.3 180708c-1631.34,855.489 -3357.27,1526.1 -5103.71,2105.65l-77.1943 25.2103c-637.39,44.0691 -1412.46,-116.866 -1693.88,-762.953 2287.78,-422.81 4561.21,-921.837 6825.54,-1454.48 15.6343,29.1189 32.3434,57.9446 49.248,86.5749z"/>
  <path class="fil0" d="M60694.7 183306c-770.575,815.035 -1623.82,1547.89 -2506.66,2237.46 -776.34,333.89 -1553.36,179.208 -2250.36,-256.207 1214.49,-685.466 2400.16,-1419.5 3508.82,-2267.36 376.493,217.707 817.087,292.459 1248.2,286.107z"/>
  <path class="fil0" d="M58703.7 185722c815.719,-647.748 1601.73,-1332.63 2317.98,-2090.01 257.282,361.543 679.505,546.418 1109.84,607.197 -366.331,408.641 -757.188,792.658 -1171.2,1153.03l-22.9629 12.1166c-709.894,364.474 -1435.23,734.616 -2233.65,317.669z"/>
  <path class="fil0" d="M66367.3 181148c-1101.14,925.354 -2243.81,1800.97 -3422.54,2625.97 -543.878,75.24 -1327.64,48.8571 -1614.34,-518.57 -12.1166,-23.94 -23.0606,-48.7594 -33.516,-74.7514 1715.86,-577.491 3415.99,-1243.71 5017.43,-2094.51 17.2954,20.9109 35.2749,41.6263 52.9611,61.8531z"/>
  <path class="fil0" d="M66968.9 181655l-1973.73 2110.24 -57.9446 62.3417 0 6.05829c-386.362,273.795 -1063.42,299.983 -1515.84,170.023 1128.7,-798.814 2224.47,-1644.92 3281.34,-2536.57 82.764,66.0549 171,128.885 266.174,187.905z"/>
  <path class="fil0" d="M68214.4 184039c-254.546,308.582 -803.211,307.311 -1128.31,120.189 -10.4554,-5.96057 -19.9337,-11.8234 -29.0211,-17.2954l1485.26 -1998.84c28.6303,2.54057 57.7491,4.98343 87.0634,7.13314l15.1457 0 729.633 0c-346.006,626.446 -755.527,1214.98 -1124.01,1828.23l-35.7634 59.3126 0 1.27029z"/>
  <path class="fil0" d="M68026.2 182067l-1442.56 1941.29 -0.879429 1.46571 -0.684 -0.684c-130.839,179.11 -989.65,234.417 -1162.51,22.9629l-0.879429 0c-6.84,-7.81714 -11.9211,-17.3931 -15.9274,-28.1417l1992.1 -2129.98c190.347,78.9531 399.945,144.422 631.332,193.083z"/>
  <path class="fil0" d="M69068.2 186988c-360.663,-736.375 -471.178,-1525.32 -582.084,-2318.76 -3.22457,-22.6697 -6.35143,-45.3394 -9.77143,-68.3023 103.968,65.4686 229.433,94.0011 368.383,93.024 100.939,-0.586286 209.793,-17.8817 322.359,-47.3914 51.3,891.154 337.31,1691.63 714.585,2491.62 2.24743,729.828 -573.778,146.571 -813.471,-150.187z"/>
  <path class="fil0" d="M67924.7 187401c-373.757,-836.727 -520.524,-1763.94 -554.431,-2674.83 6.05829,0.586286 12.8983,1.85657 19.152,2.34514 200.998,26.676 418.608,18.8589 621.267,-39.3789 4.69029,-1.46571 9.18514,-2.63829 13.5823,-3.71314 2.24743,15.4389 4.29943,31.1709 6.54686,47.0006 112.762,806.827 225.134,1609.65 592.735,2390.78 -2.24743,7.81714 -3.71314,15.5366 -5.17886,23.0606l-693.674 254.741z"/>
  <path class="fil0" d="M66133.8 187473c-232.853,-942.65 -312.49,-1895.17 -352.944,-2861.95 309.559,15.4389 643.058,-32.5389 926.82,-159.47 43.2874,38.5971 92.8286,74.4583 148.037,106.02 15.9274,9.28286 32.6366,18.5657 49.4434,26.8714 21.204,1010.46 178.719,2046.53 587.263,2975.3l-404.733 148.917 -46.3166 17.1 -35.8611 34.9817c-383.529,378.643 -673.056,153.021 -871.709,-287.769z"/>
  <path class="fil0" d="M64506.5 187497c-10.4554,-91.7537 -17.5886,-155.17 -21.4971,-190.152 -105.825,-922.618 -210.574,-1837.42 -144.91,-2800.59 249.758,-32.0503 497.561,-97.3234 706.474,-204.321 5.76514,7.32857 11.3349,14.5594 17.1,22.1811l-0.390857 0c66.0549,80.712 152.63,142.467 252.298,187.025 40.9423,1011.25 116.28,2011.84 353.53,2999.05 -377.763,472.058 -865.26,575.635 -1162.6,-13.1914z"/>
  <path class="fil0" d="M62798.3 184253c-181.065,603.386 -325.584,1419.59 -401.117,2052 -333.792,206.275 -647.65,368.187 -1037.63,439.323 -140.122,-301.253 -92.6331,-688.593 -88.0406,-1013.79 523.358,-449.388 1008.41,-947.242 1454.67,-1472.26 23.8423,-1.75886 48.0754,-3.32229 72.1131,-5.27657z"/>
  <path class="fil0" d="M62824.9 186581c86.184,-765.982 214.287,-1486.43 402.094,-2156.16 9.86914,3.51771 19.4451,6.54686 29.8029,9.576 199.728,63.0257 413.234,88.3337 622.538,93.9034 -62.0486,987.989 42.5057,1905.04 148.33,2830 7.62171,65.0777 13.7777,117.648 18.3703,158.102 -29.412,53.352 -139.731,147.353 -286.987,219.857 -174.713,85.2069 -365.354,97.2257 -518.472,-38.4994l0.586286 -0.195429c-178.719,-158.493 -334.476,-494.727 -416.263,-1116.58z"/>
  <path class="fil0" d="M70670.1 182343c-36.4474,-216.828 -74.0674,-433.461 -113.349,-650.484 -1.46571,-6.35143 -2.83371,-13.0937 -3.90857,-19.152l0.293143 0c-69.768,-388.023 -143.835,-776.535 -221.616,-1166.71l-1810.84 0c-1689.97,89.1154 -980.465,-3127.44 -2086.88,-3234.05 -1.56343,-0.195429 -8.208,0.195429 -20.6177,1.17257l-16.9046 0c-2067.34,12.996 -3880.04,13.8754 -5640.17,15.048 -1769.9,1.07486 -3487.13,2.24743 -5359.24,15.3411l-36.8383 -3.51771c-29.7051,-4.98343 -40.8446,49.8343 -48.0754,85.5977l0 0c-0.390857,2.14971 -0.781714,4.39714 -1.368,6.54686 305.162,657.91 480.07,1015.84 1151.37,1427.31l9565.15 0c99.0823,2671.02 2077.11,2868.99 4145.43,2868.99l0 460.918 -276.922 0c-360.859,692.501 -805.166,1332.53 -1211.27,1998.16 4.39714,21.3017 10.7486,37.2291 19.2497,48.4663 213.799,279.854 1285.04,-461.602 1409.82,-632.407l370.923 271.841c-147.158,200.705 -496.486,460.43 -863.403,639.345 26.7737,897.408 308.386,1687.43 688.104,2490.15 451.831,644.133 653.709,538.503 711.36,-236.957 -219.662,-1080.33 -227.674,-1817.68 -235.589,-2555.23 -6.54686,-560.391 -12.8983,-1121.47 -114.717,-1830.38z"/>
  <path class="fil0" d="M63734.5 188234c125.074,-4.59257 253.08,-57.456 377.666,-172.759 -114.912,78.4646 -243.015,138.95 -377.666,172.759z"/>
  <path class="fil0" d="M56680.7 180601c-5810.29,1083.55 -9651.63,2350.42 -10856.1,-357.537 3380.13,-92.5354 6758.51,-245.361 10134,-456.717 94.392,378.936 343.075,687.029 722.011,814.253z"/>
  <path class="fil3" d="M73208.2 189205c-940.695,870.927 -1436.99,1626.36 -1604.57,3194.57 444.6,180.869 889.298,361.152 1333.7,542.021 219.271,-1271.36 626.349,-2100.47 1237.06,-2768.73 -322.066,-322.75 -644.133,-645.305 -966.199,-967.86z"/>
  <path class="fil0" d="M73220.6 189510c-807.315,752.986 -1230.13,1409.72 -1346.41,2776.36 297.931,127.908 595.764,255.816 893.499,383.822 195.722,-1143.35 556.971,-1890.38 1097.43,-2495.23 -214.776,-221.323 -429.845,-443.427 -644.523,-664.946z"/>
  <path class="fil1" d="M75329.4 176448c2349.93,0 4266.4,527.657 4266.4,1174.72 0,531.37 -1292.27,981.833 -3055.53,1126.35l0 13209.1c207.741,625.078 2199.84,-307.898 3120.8,-873.957 -220.639,-339.362 -422.712,-731.294 -621.072,-1195.05 1566.65,-616.968 2905.63,-2186.45 4016.64,-4016.55 1327.94,3402.31 351.087,5651.99 -954.473,7144.48 -396.915,-174.713 -742.922,-353.53 -1050.92,-550.815 -1301.75,1040.17 -2748.51,1810.06 -4439.26,2029.13 -108.463,526.68 -546.907,1233.15 -1093.23,1375.13 -126.442,32.9297 -252.396,32.9297 -378.447,0 -546.516,-141.783 -985.058,-848.453 -1093.62,-1375.13 -1691.34,-219.075 -3136.92,-988.966 -4438.77,-2029.23 -308.289,197.383 -654.588,376.2 -1050.92,550.913 -1306.15,-1575.74 -2283,-3735.32 -955.255,-7144.48 1111.4,1703.55 2450.28,3211.09 4016.84,4016.64 -196.699,460.723 -397.893,850.505 -616.479,1187.81 878.94,514.954 2919.61,1473.63 3116.89,881.09l0 -13209.1c-1763.65,-144.519 -3056.11,-594.982 -3056.11,-1126.35 0,-647.064 1916.47,-1174.72 4266.5,-1174.72z"/>
  <path class="fil0" d="M76169 194359c0,-1.368 0.293143,-1.17257 0.879429,0 0,0 0.488571,0 0.488571,0 -75.0446,-287.964 -95.76,-253.569 199.239,-284.544 1622.45,-168.948 3092.75,-885.878 4347.21,-1907.87l-751.911 -693.674c-570.749,409.227 -3885.32,2109.26 -3885.32,535.474l0 -13254.6c-656.347,81.8846 -844.056,81.8846 -1500.11,0l0 13254.6c0,1576.52 -3315.35,-127.126 -3885.51,-535.474l-752.107 693.869c1254.55,1021.8 2724.67,1738.73 4347.31,1907.68 295.39,30.9754 274.089,-3.42 199.142,284.544 0.195429,0 0.488571,0 0.586286,0 0.684,-1.17257 0.977143,-1.368 0.977143,0 0,1336.83 1679.12,1336.83 1679.12,0zm0.879429 0c2.24743,3.90857 1.07486,2.736 0.488571,0 0,0 -0.488571,0 -0.488571,0zm-1681.57 0c0,0.390857 -0.390857,0.977143 -0.390857,1.27029 -0.684,3.42 0,0 0.977143,-1.27029 -0.0977143,0 -0.390857,0 -0.586286,0z"/>
  <path class="fil0" d="M67683.5 186712c-815.133,2739.71 -36.0566,4523.39 980.074,5762.41 1235.5,-539.383 1865.07,-1096.35 2517.8,-2368.69 -1304.39,-592.051 -2473.73,-1891.65 -3497.88,-3393.71z"/>
  <path class="fil0" d="M82923.3 186817c839.659,2689.29 74.556,4445.61 -927.895,5657.85 -1213.9,-537.624 -1832.14,-1093.62 -2465.92,-2368.69 1272.44,-560.685 2407.29,-1824.81 3393.81,-3289.16z"/>
  <circle class="fil3" cx="81705.8" cy="190413" r="1180.78"/>
  <circle class="fil0" cx="81705.9" cy="190413" r="962.486"/>
  <ellipse class="fil0" cx="75329.3" cy="177623" rx="3590.02" ry="872.1"/>
  <path class="fil3" d="M77788.7 195420c648.432,-219.369 1605.64,-632.407 1681.66,-2981.85 -64.6869,-1690.85 -1107.49,-2762.29 -1855.69,-3272.16 -354.312,283.958 -708.331,567.818 -1063.13,851.971 534.986,419.487 992.582,1071.44 1372.69,2013.6 140.513,638.758 107.193,1412.95 -328.906,1916.76 -857.834,-107.486 -1098.5,535.377 -830.865,1181.37 287.378,310.438 703.152,329.102 1024.24,290.309z"/>
  <path class="fil0" d="M77768 195208c585.699,-181.162 1455.85,-541.435 1490.05,-2628.61 -92.2423,-1623.23 -990.725,-2629.59 -1669.64,-3128.03 -227.772,199.63 -455.544,399.456 -683.121,599.575 499.613,449.095 931.022,1118.73 1296.28,2076.92 60.7783,686.931 -43.1897,1505.68 -515.15,2074.08 -771.357,-219.857 -986.817,336.626 -726.115,835.555 213.994,245.947 552.574,232.365 807.706,170.511z"/>
  <circle class="fil1" cx="75329.3" cy="175164" r="1707.75"/>
  <circle class="fil0" cx="75329.3" cy="175164" r="1476.46"/>
  <circle class="fil1" cx="75329.3" cy="175164" r="862.524"/>
  <path class="fil1" d="M74848.4 174666c273.893,-169.241 722.109,-194.94 969.228,-1.07486 246.826,194.158 285.912,621.658 211.551,931.51 -759.435,583.061 -1229.34,1700.42 -1337.81,2699.75 0,1710.68 387.339,1847.87 726.31,2808.11 -643.253,129.178 -1286.7,258.259 -1930.35,387.242 -125.954,-790.704 -281.417,-758.458 -376.493,-2372.31 5.27657,-2001.87 803.114,-3656.47 1737.56,-4453.23z"/>
  <path class="fil0" d="M75030.4 174647c199.337,-117.355 498.831,-82.764 734.323,51.8863 235.198,135.237 223.473,437.565 164.258,652.731 -728.851,680.189 -1394.38,1867.91 -1435.91,2883.35 55.404,1671.01 324.607,2029.43 699.341,2763.75 -503.522,92.2423 -1007.53,183.898 -1511.64,275.847 -254.253,-522.478 -195.526,-535.67 -376.102,-1951.94 30.3891,-2295.5 879.233,-3777.15 1725.73,-4675.63z"/>
  <path class="fil1" d="M75339.4 179120c1638.18,752.791 3223.99,712.826 4835.78,838.486 461.407,41.5286 707.451,300.765 707.451,530.295 286.694,2737.17 -967.469,8181.13 -5543.23,11092.6 -12.8006,8.30571 -6.93771,8.30571 -19.836,0 -4575.96,-2911.49 -5829.73,-8355.45 -5543.04,-11092.6 0,-229.531 245.067,-494.043 706.474,-530.295 1611.99,-129.765 3197.99,-85.5 4836.56,-838.486 10.0646,-5.27657 10.0646,-5.27657 19.836,0z"/>
  <path class="fil0" d="M75338.8 179525c1562.06,718.005 3073.99,679.407 4610.94,798.912 439.812,40.7469 439.812,169.827 439.812,389.098 272.33,2609.66 -688.006,7476.8 -5050.75,10252.7 -12.0189,6.84 -7.13314,6.84 -19.2497,0 -4361.57,-2775.87 -5322.59,-7643.02 -5050.07,-10252.7 0,-219.271 0,-353.628 440.203,-389.098 1536.26,-123.12 3048.59,-80.5166 4609.87,-798.912 10.0646,-4.88571 10.0646,-4.88571 19.2497,0z"/>
  <path class="fil1" d="M80408.4 183435l-1152.15 0 0 3374.95c-207.447,401.997 -567.134,924.182 -835.75,1314.45l0 -4689.41 -543.682 0 0 5560.53c-220.737,258.943 -580.521,512.609 -834.773,757.286l0 -6317.81 -544.171 0 0 6910.16c-225.622,183.996 -585.797,362.227 -834.773,533.618l0 -7443.78 -545.05 0 0 7566.51c-248.781,-171.684 -608.369,-472.644 -834.871,-656.347l0 -6910.16 -543.78 0 0 6441.33c-253.764,-245.067 -614.232,-621.854 -834.969,-881.09l0 -5560.24 -543.78 0 0 5056.52c-267.933,-389.978 -627.814,-1156.55 -835.359,-1558.64l0 -3497.88 -1275.46 0c-39.672,-243.309 -69.8657,-726.31 -92.9263,-958.675l10344.6 0c-22.1811,232.365 -53.352,715.366 -93.1217,958.675z"/>
  <path class="fil0" d="M70290.9 182712l10076.6 0c-17.784,159.665 -38.4994,322.066 -64.296,486.91l-1283.18 0 0 3823.27c-147.549,273.405 -309.852,543.878 -486.031,810.54l0 -4633.81 -892.522 0 0 5803.25c-154.877,175.69 -317.181,348.742 -487.301,518.57l0 -6321.82 -892.131 0 0 7114.19c-155.952,124.097 -318.549,245.849 -486.129,363.986l0 -7478.17 -893.206 0 0 7478.47c-166.798,-118.137 -329.395,-240.182 -485.835,-364.083l0 -7114.38 -892.815 0 0 6321.92c-170.511,-169.143 -332.424,-342.684 -487.594,-518.667l0 -5803.25 -891.252 0 0 4633.81c-175.983,-266.369 -339.069,-536.549 -487.301,-809.27l0 -3824.54 -1283.38 0c-25.1126,-164.844 -46.7074,-327.245 -63.612,-486.91z"/>
 </g>
</svg>
